<svg xmlns="http://www.w3.org/2000/svg" width="87" height="28" viewBox="0 0 87 28"><path fill="#06357a" d="M0 27.221L.037.699l4.82.013-.035 26.516zM24.732.002C32.164.01 37.448 6.197 37.437 14.01s-5.313 13.991-12.746 13.985c-7.387-.011-12.673-6.2-12.664-14.016S17.338-.013 24.727 0M24.7 26.275c6.169 0 7.56-7.11 7.563-12.268S30.901 1.726 24.734 1.715s-7.523 7.119-7.53 12.272 1.335 12.275 7.5 12.289M44.295.762l11.861.016a7.833 7.833 0 0 1 7.729 8.207c0 5.732-3.359 8.258-9.888 8.247l-4.895-.006-.019 10.063-4.822-.008zM49.1 15.51h3.753c4.19.006 6.206-2.723 6.213-7.268 0-2.742-1.294-6.152-6.321-6.16h-3.629zm20.551 11.815L69.686.802l17.208.019v1.722l-12.395-.01-.015 10.233h10.048v1.719l-10.046-.014-.018 11.139 12.546.016v1.718z"/></svg>