<svg width="28" height="29" viewBox="0 0 28 29" fill="none" xmlns="http://www.w3.org/2000/svg">
<path d="M24.254 1.38379H3.74599C1.67719 1.38379 0 3.06098 0 5.12978V17.3013C0 19.3701 1.67719 21.0473 3.74599 21.0473H10.9888L13.4531 26.8522C13.4531 26.8522 13.6232 27.3545 14.0326 27.3545C14.444 27.3545 14.6121 26.8522 14.6121 26.8522L17.0765 21.0473H24.254C26.3228 21.0473 28 19.3701 28 17.3013V5.12978C27.998 3.06098 26.3208 1.38379 24.254 1.38379ZM8.79537 12.1431C8.7835 14.3682 6.48329 14.4315 6.48329 14.4315C5.59328 14.4315 5.09091 13.8421 5.09091 13.8421V14.2436H3.4157V7.33307C3.40976 7.33109 3.40778 7.33109 3.4157 7.32912V7.33307C3.52052 7.34889 5.09091 7.32912 5.09091 7.32912V9.97148C5.4845 9.29902 6.62372 9.31089 6.62372 9.31089C9.10588 9.5423 8.79537 12.1431 8.79537 12.1431ZM11.7463 9.5245V14.2554H10.1067V9.57196C10.1067 8.93511 9.31553 8.7571 9.31553 8.7571V7.10562C11.9342 7.21242 11.7463 9.5245 11.7463 9.5245ZM15.6327 14.4354C14.1137 14.4354 12.8835 13.3021 12.8835 11.9058C12.8835 10.5075 14.1137 9.37616 15.6327 9.37616C17.1517 9.37616 18.3819 10.5095 18.3819 11.9058C18.3819 13.3021 17.1517 14.4354 15.6327 14.4354ZM24.6159 14.4354C24.6159 14.4354 24.6397 16.8385 22.1971 16.8385H21.4534V15.2819H21.9024C21.9024 15.2819 22.9289 15.3769 22.917 13.7946C22.917 13.7946 22.7172 14.4354 21.2774 14.4354C21.2774 14.4354 19.2363 14.2891 19.2363 12.2974V11.5419C19.2363 11.5419 19.2837 9.47703 21.5246 9.31287C21.5246 9.31287 22.4087 9.21793 22.9526 9.94973V9.44341H24.6159V14.4354Z" fill="#2FB44A"/>
<path d="M6.10919 10.9678C5.57716 10.9678 5.146 11.3989 5.146 11.931C5.146 12.463 5.57716 12.8961 6.10919 12.8961C6.64123 12.8961 7.07239 12.465 7.07239 11.931C7.07437 11.3989 6.64123 10.9678 6.10919 10.9678Z" fill="#2FB44A"/>
<path d="M15.6316 10.8662C15.058 10.8662 14.5933 11.331 14.5933 11.9046C14.5933 12.4781 15.058 12.9429 15.6316 12.9429C16.2052 12.9429 16.67 12.4781 16.67 11.9046C16.67 11.331 16.2052 10.8662 15.6316 10.8662Z" fill="#2FB44A"/>
<path d="M22.0092 10.8887C21.4495 10.8887 20.9946 11.3436 20.9946 11.9033C20.9946 12.463 21.4495 12.9179 22.0092 12.9179C22.569 12.9179 23.0239 12.463 23.0239 11.9033C23.0239 11.3436 22.569 10.8887 22.0092 10.8887Z" fill="#2FB44A"/>
</svg>
