<svg width="100" height="30" viewBox="0 0 100 30" fill="none" xmlns="http://www.w3.org/2000/svg">
<mask id="path-1-inside-1_1559_19787" fill="white">
<path fill-rule="evenodd" clip-rule="evenodd" d="M81.5993 28.9786C82.2252 29.564 83.0437 29.8643 83.8622 29.8643C84.6808 29.8643 85.5153 29.564 86.1413 28.9636L99.0611 16.8798C100.313 15.7089 100.313 13.8026 99.0611 12.6317L86.4944 0.87814C85.2425 -0.292713 83.2042 -0.292713 81.9524 0.87814C80.7005 2.04899 79.3161 4.54278 80.568 5.71363L86.2501 11H0.993049C0.446872 11 0 12.7966 0 14.5C0 16.2034 0.446872 17.9718 0.993049 17.9718C18.1788 17.9718 31.2127 17.9789 44.2465 17.9859C56.9555 17.9928 69.6644 17.9996 86.2224 18L80.5679 23.72C79.316 24.8909 80.3474 27.8078 81.5993 28.9786Z"/>
</mask>
<path fill-rule="evenodd" clip-rule="evenodd" d="M81.5993 28.9786C82.2252 29.564 83.0437 29.8643 83.8622 29.8643C84.6808 29.8643 85.5153 29.564 86.1413 28.9636L99.0611 16.8798C100.313 15.7089 100.313 13.8026 99.0611 12.6317L86.4944 0.87814C85.2425 -0.292713 83.2042 -0.292713 81.9524 0.87814C80.7005 2.04899 79.3161 4.54278 80.568 5.71363L86.2501 11H0.993049C0.446872 11 0 12.7966 0 14.5C0 16.2034 0.446872 17.9718 0.993049 17.9718C18.1788 17.9718 31.2127 17.9789 44.2465 17.9859C56.9555 17.9928 69.6644 17.9996 86.2224 18L80.5679 23.72C79.316 24.8909 80.3474 27.8078 81.5993 28.9786Z" fill="#FFED00"/>
<path d="M81.5993 28.9786L80.9162 29.709V29.709L81.5993 28.9786ZM86.1413 28.9636L85.4581 28.2332L85.449 28.242L86.1413 28.9636ZM99.0611 16.8798L98.378 16.1495V16.1495L99.0611 16.8798ZM99.0611 12.6317L98.378 13.362L99.0611 12.6317ZM86.4944 0.87814L87.1774 0.147798V0.147798L86.4944 0.87814ZM81.9524 0.87814L81.2693 0.147798V0.147798L81.9524 0.87814ZM80.568 5.71363L79.8849 6.44398L79.8868 6.44578L80.568 5.71363ZM86.2501 11V12H88.7931L86.9313 10.2679L86.2501 11ZM44.2465 17.9859L44.246 18.9859L44.2465 17.9859ZM86.2224 18L86.9336 18.703L88.6171 17L86.2225 17L86.2224 18ZM80.5679 23.72L81.251 24.4504L81.2653 24.437L81.279 24.4231L80.5679 23.72ZM83.8622 28.8643C83.2849 28.8643 82.7141 28.6521 82.2823 28.2483L80.9162 29.709C81.7363 30.476 82.8026 30.8643 83.8622 30.8643V28.8643ZM85.449 28.242C85.0238 28.6499 84.4435 28.8643 83.8622 28.8643V30.8643C84.918 30.8643 86.0069 30.4782 86.8335 29.6853L85.449 28.242ZM98.378 16.1495L85.4582 28.2333L86.8244 29.694L99.7442 17.6101L98.378 16.1495ZM98.378 13.362C99.2073 14.1377 99.2073 15.3738 98.378 16.1495L99.7442 17.6101C101.419 16.0441 101.419 13.4674 99.7442 11.9014L98.378 13.362ZM85.8113 1.60848L98.378 13.362L99.7442 11.9014L87.1774 0.147798L85.8113 1.60848ZM82.6354 1.60848C83.5029 0.797173 84.9438 0.797173 85.8113 1.60848L87.1774 0.147798C85.5412 -1.3826 82.9056 -1.3826 81.2693 0.147798L82.6354 1.60848ZM81.2511 4.98329C81.0896 4.83229 80.9493 4.46312 81.2568 3.64927C81.5431 2.89128 82.1092 2.10065 82.6354 1.60848L81.2693 0.147798C80.5436 0.826482 79.7916 1.86818 79.3858 2.9425C79.0011 3.96097 78.7945 5.42412 79.8849 6.44397L81.2511 4.98329ZM86.9313 10.2679L81.2491 4.98149L79.8868 6.44578L85.569 11.7321L86.9313 10.2679ZM0.993049 12H86.2501V10H0.993049V12ZM1 14.5C1 13.7234 1.10325 12.938 1.25669 12.3736C1.33525 12.0846 1.41248 11.9081 1.46171 11.8272C1.55468 11.6744 1.42589 12 0.993049 12V10C0.287121 10 -0.102351 10.5501 -0.246781 10.7875C-0.434944 11.0967 -0.571847 11.4758 -0.673269 11.8489C-0.879815 12.6087 -1 13.5733 -1 14.5H1ZM0.993049 16.9718C1.41869 16.9718 1.54795 17.2888 1.45854 17.1439C1.41074 17.0664 1.33421 16.8945 1.25597 16.6097C1.10323 16.0539 1 15.2766 1 14.5H-1C-1 15.4268 -0.879794 16.3854 -0.672552 17.1396C-0.570799 17.51 -0.433207 17.8866 -0.24361 18.1939C-0.0956165 18.4338 0.294322 18.9718 0.993049 18.9718V16.9718ZM44.2471 16.9859C31.2132 16.9789 18.1791 16.9718 0.993049 16.9718V18.9718C18.1785 18.9718 31.2122 18.9789 44.246 18.9859L44.2471 16.9859ZM86.2225 17C69.6647 16.9996 56.956 16.9928 44.2471 16.9859L44.246 18.9859C56.9549 18.9928 69.6641 18.9996 86.2224 19L86.2225 17ZM81.279 24.4231L86.9336 18.703L85.5113 17.297L79.8567 23.017L81.279 24.4231ZM82.2823 28.2483C81.8223 27.818 81.3346 26.9779 81.1143 26.1047C80.879 25.1724 81.0429 24.645 81.251 24.4504L79.8848 22.9897C78.841 23.9659 78.8946 25.4824 79.1751 26.594C79.4704 27.7646 80.1244 28.9684 80.9162 29.709L82.2823 28.2483Z" fill="black" mask="url(#path-1-inside-1_1559_19787)"/>
</svg>
