<svg width="28" height="29" viewBox="0 0 28 29" fill="none" xmlns="http://www.w3.org/2000/svg">
<path d="M26.1295 14.4497C26.1295 21.1559 20.7062 26.583 14.0048 26.583C7.30336 26.6003 1.86279 21.1559 1.86279 14.4497C1.86279 7.76084 7.30336 2.31641 13.9875 2.31641C20.6889 2.31641 26.1295 7.76084 26.1295 14.4497Z" fill="#ED2F2A"/>
<path d="M21.3452 10.7332C21.1725 10.0764 20.6543 9.54059 19.998 9.36775C18.789 9.05664 13.9875 9.05664 13.9875 9.05664C13.9875 9.05664 9.20321 9.05664 7.9942 9.38504C7.33788 9.55787 6.81973 10.0937 6.64701 10.7505C6.31885 11.9603 6.31885 14.4665 6.31885 14.4665C6.31885 14.4665 6.31885 16.9727 6.64701 18.1826C6.81973 18.8393 7.33788 19.3751 7.9942 19.548C9.18594 19.8764 13.9875 19.8764 13.9875 19.8764C13.9875 19.8764 18.7717 19.8764 19.9807 19.548C20.637 19.3751 21.1552 18.8393 21.3279 18.1826C21.6561 16.9727 21.6561 14.4665 21.6561 14.4665C21.6561 14.4665 21.6561 11.9431 21.3452 10.7332Z" fill="white"/>
<path d="M12.4326 16.7312L16.4396 14.4497L12.4326 12.1855V16.7312Z" fill="#ED2F2A"/>
</svg>
