<svg width="204" height="50" viewBox="0 0 204 50" fill="none" xmlns="http://www.w3.org/2000/svg">
<path d="M139.022 32.0227C144.303 30.7868 148.011 27.1913 148.011 22.9216C148.011 17.6407 142.28 13.4834 135.202 13.4834C128.123 13.4834 122.393 17.7531 122.393 22.9216C122.393 27.1913 126.213 30.7868 131.381 32.0227V37.7531H122.954V40.7868H147.449V37.7531H138.909V32.0227H139.022ZM135.202 15.8429C138.348 15.8429 140.932 18.8767 140.932 22.6969C140.932 26.5171 138.348 29.5508 135.202 29.5508C132.056 29.5508 129.471 26.5171 129.471 22.6969C129.471 18.8767 132.056 15.8429 135.202 15.8429Z" fill="#123E8C"/>
<path d="M162.842 16.9663V13.9326H152.056V26.4045C152.056 27.5281 153.067 28.3146 154.19 28.3146H163.292V25.2809H159.134V16.7416H162.842V16.9663Z" fill="#123E8C"/>
<path d="M171.718 16.9668H175.988V14.0454H164.64V26.5173C164.64 27.6409 165.651 28.4274 166.775 28.4274H176.325V25.5061H171.718V16.9668Z" fill="#123E8C"/>
<path d="M176.775 29.8882H151.606V33.0343H160.033V38.7646C160.033 38.8769 160.033 38.9893 160.033 39.1017C160.033 40.6747 161.718 41.9107 163.853 41.9107C165.988 41.9107 167.674 40.6747 167.674 39.214V33.259H176.775V29.8882Z" fill="#123E8C"/>
<path d="M196.55 38.989C196.55 40.4497 198.123 41.6856 200.258 41.6856C202.393 41.6856 203.741 40.4497 203.741 38.989V13.4834H196.55V38.989Z" fill="#123E8C"/>
<path d="M181.606 37.191C180.37 37.4158 179.696 37.9776 179.696 38.9888C179.696 40 180.37 40.7865 181.381 40.7865C181.381 40.7865 193.404 41.236 193.404 33.9326V13.9326H179.696V17.0787H186.662V33.2585C186.662 33.2585 186.662 36.2922 181.606 37.191Z" fill="#123E8C"/>
<path d="M84.9769 35.1688V27.5283H81.6061V35.1688H84.9769Z" fill="#123E8C"/>
<path d="M72.9544 35.9551V37.5281H81.6061V40.4495V40.5618C81.6061 41.1236 82.505 41.6854 83.2915 41.6854C84.078 41.6854 84.8645 41.236 84.9769 40.5618V35.9551H72.9544Z" fill="#123E8C"/>
<path d="M113.516 34.4947H114.64V32.6969H113.516V27.416H110.145V40.4497C110.145 41.1239 111.269 41.6857 111.831 41.6857C112.505 41.6857 113.516 41.2362 113.516 40.4497V34.4947Z" fill="#123E8C"/>
<path d="M58.6848 35.7305V37.3035H63.2915V40.6743C63.4039 41.4608 64.3027 41.7979 64.9769 41.7979C65.6511 41.7979 66.6623 41.4608 66.7747 40.6743V37.3035H71.3814V35.7305H58.6848Z" fill="#123E8C"/>
<path d="M99.4713 40.4498V27.5285H96.4376V38.7644H93.1791V37.4161C94.7522 36.742 95.7634 35.2813 95.7634 33.4835C95.7634 31.7981 94.7522 30.3375 93.4039 29.6633H93.8533H95.6511V28.0903H93.0668V27.1914H89.9207V28.0903H87.3364V29.6633H89.1342H89.5836C88.123 30.3375 87.2241 31.7981 87.2241 33.4835C87.2241 35.2813 88.3477 36.742 89.8084 37.4161V38.7644H86.887V40.3375H96.3252V40.5622C96.3252 41.2363 97.1117 41.6858 97.8982 41.6858C98.7971 41.5734 99.4713 41.124 99.4713 40.4498ZM91.4938 36.2925C90.7072 36.2925 90.0331 35.0566 90.0331 33.4835C90.0331 31.9105 90.7072 30.6746 91.4938 30.6746C92.2803 30.6746 92.9544 31.9105 92.9544 33.4835C92.9544 34.9442 92.2803 36.2925 91.4938 36.2925Z" fill="#123E8C"/>
<path d="M101.269 39.5512C100.932 39.6635 100.707 40.0006 100.707 40.3377C100.707 40.7871 101.044 41.1242 101.494 41.1242C101.606 41.1242 101.606 41.1242 101.718 41.1242C102.617 41.0118 103.966 40.3377 105.202 38.9894C106.662 40.6748 109.471 41.1242 109.471 41.1242V39.5512C108.909 39.5512 106.999 38.3152 106.999 35.5062V27.7534H103.404V35.5062C103.292 37.7534 101.943 39.1017 101.269 39.5512Z" fill="#123E8C"/>
<path d="M72.8421 33.7085C72.505 33.8208 72.2803 34.1579 72.2803 34.495C72.2803 34.9444 72.6173 35.2815 73.0668 35.2815C73.1791 35.2815 73.1791 35.2815 73.2915 35.2815C74.1904 35.0568 75.2016 35.0568 76.7747 33.7085C78.2353 35.3939 81.0443 35.2815 81.0443 35.2815V33.7085C80.4825 33.7085 78.5724 32.922 78.5724 30.2253V27.7534H75.0893V30.2253C74.8645 32.4725 73.5162 33.3714 72.8421 33.7085Z" fill="#123E8C"/>
<path d="M66.887 30.0002V29.2137H67.1117H70.7072V27.6406H59.3589V29.2137H62.9544H63.1792V29.8878C63.1792 32.135 60.4825 33.0339 59.696 33.371C59.3589 33.4833 59.1342 33.8204 59.1342 34.1575C59.1342 34.6069 59.4713 34.944 59.9207 34.944C59.9207 34.944 63.6286 34.8316 65.0893 33.371C66.7747 34.944 71.0443 34.944 71.0443 34.944V33.371C70.4825 33.371 66.887 32.4721 66.887 30.0002Z" fill="#123E8C"/>
<path d="M44.3247 44.6313C43.2175 44.6313 42.3193 45.5295 42.3193 46.6367C42.3193 47.7439 43.2175 48.6421 44.3247 48.6421C45.4319 48.6421 46.3301 47.7439 46.3301 46.6367C46.3301 45.5295 45.4319 44.6313 44.3247 44.6313ZM44.3247 48.2859C43.4149 48.2859 42.6755 47.5465 42.6755 46.6367C42.6755 45.7269 43.4149 44.9875 44.3247 44.9875C45.2345 44.9875 45.9739 45.7269 45.9739 46.6367C45.9739 47.5465 45.2345 48.2859 44.3247 48.2859Z" fill="#DF3232"/>
<path d="M45.2538 47.554L45.2345 47.1126C45.2229 46.7758 45.0912 46.7139 44.9596 46.6558C45.1067 46.5629 45.2771 46.4313 45.2771 46.0712C45.2771 45.5564 44.9015 45.417 44.526 45.417H43.4691V47.8521H43.7788V46.8068H44.526C44.8938 46.8068 44.9325 47.0391 44.9325 47.2404C44.9325 47.3333 44.9403 47.7011 44.9867 47.8521H45.3661V47.7979C45.2693 47.7398 45.2538 47.6895 45.25 47.554H45.2538ZM44.495 46.5281H43.7788V45.6996H44.5492C44.7002 45.6996 44.9596 45.7306 44.9596 46.1061C44.9596 46.4816 44.7196 46.5281 44.495 46.5281Z" fill="#DF3232"/>
<path d="M46.2526 19.2817C46.2526 19.2817 43.8021 16.2814 39.5707 15.7471C39.5707 15.7433 38.7848 2.01161 25.0261 2H25.0144H24.9796C11.2247 2.00774 10.4388 15.7433 10.4388 15.7433C6.20357 16.2775 3.75688 19.2778 3.75688 19.2778C-0.65258 23.7841 1.55022 30.5473 1.55022 30.5473C4.32597 39.8308 11.0428 43.9422 11.0428 43.9422C16.4394 47.5502 21.6812 48.2664 24.999 48.3168H25.0106C28.3283 48.2664 33.574 47.5502 38.9706 43.9422C38.9706 43.9422 45.6797 39.8308 48.4593 30.5473C48.4593 30.5473 50.6621 23.7879 46.2565 19.2778L46.2526 19.2817Z" fill="#DF3232"/>
<path d="M44.5105 20.3234C44.5105 20.3234 42.389 17.9426 37.6699 17.4625C37.6699 17.4625 37.4143 3.83151 25.0067 3.82764C25.0067 3.82764 25.0067 3.82764 25.0028 3.82764H24.999C12.5913 3.83538 12.3397 17.4625 12.3397 17.4625C7.62048 17.9464 5.49899 20.3234 5.49899 20.3234C1.49214 24.4271 3.60203 30.2689 3.60203 30.2689C6.16486 38.8517 12.3319 42.4946 12.3319 42.4946C17.3066 45.8201 22.0219 46.4899 24.999 46.4937H25.0067C27.9838 46.4899 32.6991 45.8201 37.6737 42.4946C37.6737 42.4946 43.8447 38.8517 46.4114 30.2689C46.4114 30.2689 48.5212 24.4271 44.5105 20.3234Z" fill="white"/>
<path d="M44.5996 25.5569C44.5996 25.5569 43.6859 20.4932 38.6067 20.2764H34.3521C34.9019 19.0221 35.0915 17.9923 35.0761 16.1456C35.0373 10.6793 30.6472 6.41309 25.0532 6.41309H24.9564C19.3623 6.41309 14.9412 10.629 14.8986 16.0914C14.887 17.9381 15.1348 19.0995 15.7193 20.2725H11.2092C6.13002 20.6054 5.40995 25.553 5.40995 25.553C4.97636 29.1572 6.24229 31.4994 6.24229 31.4994C6.24229 31.4994 9.44002 40.4035 19.6217 43.1754C19.6217 43.1754 21.8244 43.8722 24.999 43.9032C28.1735 43.8722 30.384 43.1754 30.384 43.1754C40.5579 40.4035 43.7595 31.4994 43.7595 31.4994C43.7595 31.4994 45.0254 29.1534 44.5957 25.553L44.5996 25.5569ZM43.3956 31.3794C43.3956 31.3794 40.2559 40.1093 30.2833 42.827C30.2833 42.827 28.1154 43.5122 25.0028 43.5393C21.8903 43.5083 19.7301 42.827 19.7301 42.827C9.74972 40.1093 6.61006 31.3794 6.61006 31.3794C6.61006 31.3794 5.37123 29.0798 5.79708 25.5491C5.79708 25.5491 6.69523 20.7758 11.6699 20.6403H16.2807C15.5955 19.2427 15.2935 18.2207 15.309 16.4089C15.3516 11.051 19.4745 6.78086 24.9564 6.78086H25.0532C30.535 6.78086 34.6618 11.051 34.7005 16.4089C34.716 18.2207 34.4141 19.2427 33.7327 20.6403H38.3396C43.3182 20.7758 44.2163 25.5491 44.2163 25.5491C44.6383 29.0798 43.3995 31.3794 43.3995 31.3794H43.3956Z" fill="#DF3232"/>
<path d="M15.158 26.126C13.9966 26.126 13.052 27.3454 13.052 28.8475C13.052 30.3496 13.9966 31.5652 15.158 31.5652C16.3194 31.5652 17.2601 30.3457 17.2601 28.8475C17.2601 27.3493 16.3194 26.126 15.158 26.126Z" fill="#DF3232"/>
<path d="M42.509 23.4745C40.8637 21.2098 38.088 21.2407 38.088 21.2407H31.3634L31.2628 21.3801C29.931 23.3545 27.9063 24.7211 25.0028 24.7211C22.8891 24.7211 20.1017 23.3584 18.7622 21.3801L18.6693 21.2407H11.9177C11.9177 21.2407 9.14192 21.2098 7.50821 23.4745C7.50821 23.4745 5.28993 25.7741 7.24109 31.012C7.24109 31.012 10.1252 39.2773 19.8772 42.0531C19.8772 42.0531 21.9522 42.7074 24.9486 42.7461C24.9486 42.7461 24.9873 42.7461 25.0028 42.7461C25.0183 42.7461 25.0415 42.7461 25.0609 42.7461C28.0573 42.7074 30.1362 42.0492 30.1362 42.0492C39.8881 39.2735 42.7684 31.0081 42.7684 31.0081C44.7196 25.7702 42.509 23.4706 42.509 23.4706V23.4745ZM25.4442 25.3792H29.7452V26.56H28.0651V29.6725H29.7452V30.8417H26.2378C25.8119 30.8339 25.4713 30.4933 25.4596 30.0713L25.4442 30.0597V25.3792ZM24.7241 25.3792V26.5638H23.3227V29.6609H24.7241V30.8417H21.4876C21.4876 30.8417 21.4799 30.8378 21.476 30.8378C21.0463 30.8378 20.694 30.4894 20.6901 30.0597V30.0519C20.6901 30.0519 20.6863 30.0403 20.6863 30.0364V25.3792H24.7241ZM16.5865 32.5335V34.7827H19.7184V35.9828H10.6672V34.7827H13.7643V32.5296C11.8441 32.0534 10.4466 30.6249 10.4466 28.9486C10.4466 26.8736 12.5642 25.1895 15.1812 25.1895C17.7983 25.1895 19.9159 26.8736 19.9159 28.9486C19.9159 30.6326 18.5144 32.0612 16.5865 32.5335ZM29.8575 32.9206H26.4894V35.5028C26.4894 36.1028 25.8545 36.5906 25.0802 36.5906C24.306 36.5906 23.675 36.099 23.675 35.495C23.675 35.4602 23.675 35.4176 23.6827 35.3789V32.9283H20.5817V31.6972H29.8652V32.9245L29.8575 32.9206ZM35.7806 33.2806C35.7806 36.1919 31.3402 36.0099 31.3402 36.0099V36.0022C30.9376 36.0022 30.6976 35.6963 30.6976 35.3015C30.6976 34.9066 30.9453 34.6588 31.4099 34.5891H31.4022C33.272 34.233 33.272 33.0058 33.272 33.0058V26.5909H30.7131V25.3599H35.7806V33.2768V33.2806ZM39.5591 35.2899C39.5591 35.8899 39.0326 36.3738 38.2622 36.3738C37.4918 36.3738 36.9072 35.8899 36.9072 35.2899V25.1856H39.5591V35.2899Z" fill="#DF3232"/>
<path d="M20.6282 13.7306C20.6282 13.7306 21.8903 12.9873 22.3858 13.6377C22.3858 13.6377 22.7536 13.8777 22.6645 13.2661C22.6645 13.2661 22.0064 11.9188 20.5004 13.4054C20.5004 13.4054 19.7301 14.2262 20.6243 13.7306H20.6282Z" fill="#DF3232"/>
<path d="M27.6508 12.1082L26.652 12.5456C25.9861 12.8786 26.3772 13.3354 26.3772 13.3354C26.9346 13.8928 27.3914 13.4399 27.3914 13.4399C28.1309 12.6076 28.94 13.0024 28.94 13.0024C28.7038 11.4384 27.647 12.112 27.647 12.112L27.6508 12.1082Z" fill="#DF3232"/>
<path d="M25.9048 16.831C26.4778 16.8233 26.9385 16.3626 26.9308 15.7896C26.9308 15.2205 26.4623 14.7598 25.8932 14.7637C25.3203 14.7637 24.8635 15.2321 24.8673 15.8012C24.8673 16.378 25.3396 16.8349 25.9087 16.831H25.9048Z" fill="#DF3232"/>
<path d="M22.8465 15.5153C22.8465 15.5153 21.9483 15.7282 22.9742 16.3322C22.9742 16.3322 23.9227 16.8548 23.915 16.2857C23.915 16.2857 23.2646 16.3709 23.7872 15.5501C23.7872 15.5501 23.8221 14.5281 23.0865 14.4507C23.0865 14.4507 23.7059 15.5114 22.8465 15.5153Z" fill="#DF3232"/>
<path d="M21.9909 15.3563C21.9909 15.3563 22.8891 15.1434 21.9057 15.1085C21.9057 15.1085 20.965 15.2402 20.5934 14.5046C20.5934 14.5046 19.8114 13.7729 20.2682 14.6711C20.2682 14.6711 20.605 15.8131 21.9909 15.3563Z" fill="#DF3232"/>
<path d="M27.8986 18.4615L27.2482 18.8757C27.2482 18.8757 26.6752 19.1274 26.8766 18.4731C26.8766 18.4731 26.7914 16.7543 25.9281 17.4975C25.9281 17.4975 25.1964 18.2796 24.666 18.446C24.666 18.446 23.6904 18.988 22.6645 18.2563C22.6645 18.2563 21.4722 17.0833 20.8566 17.1685C20.8566 17.1685 20.1133 17.1375 20.8566 17.4085C20.8566 17.4085 21.3328 17.5246 21.8012 17.8537C21.8012 17.8537 22.6336 18.837 23.0826 19.0383C23.0826 19.0383 23.7563 19.5145 25.0725 19.5416C25.0725 19.5416 26.8843 19.7778 28.1464 18.6202C28.1464 18.6202 28.487 18.1441 27.8986 18.4576V18.4615ZM25.5448 18.9222L25.0532 18.8409C25.0532 18.8409 25.7848 18.597 26.0326 18.2679C26.0326 18.2679 25.8739 18.8409 25.5409 18.9222H25.5448Z" fill="#DF3232"/>
<path d="M32.5403 16.6571C32.5403 16.5603 32.5558 16.4635 32.5558 16.3628C32.5558 16.2622 32.5481 16.1731 32.5442 16.0802C32.6178 15.1163 32.4939 12.8825 30.3337 10.3274C30.3337 10.3274 27.647 6.65738 23.2491 8.7208C23.2491 8.7208 21.4528 7.48197 19.9817 8.82533C19.9817 8.82533 18.7003 9.82414 19.4281 11.5275C19.4281 11.5275 19.1222 11.8837 18.7506 12.476C17.9028 13.6955 17.415 15.0737 17.415 16.3977C17.415 19.5761 19.3739 22.3015 22.1419 23.4397C22.5058 23.6177 22.9084 23.7881 23.3614 23.9352C23.3614 23.9352 27.0353 25.2321 30.1207 21.9763C30.6589 21.473 31.1195 20.8923 31.4951 20.2535C32.0487 19.8277 33.965 18.1785 32.5365 16.6609L32.5403 16.6571ZM30.624 18.6779C30.1943 20.2961 28.9748 21.3065 28.4212 21.7014C28.4212 21.7014 28.3941 21.7169 28.3941 21.7208C28.3825 21.7285 28.3864 21.7247 28.3748 21.7363C28.2315 21.8369 28.1425 21.8872 28.1425 21.8872C27.225 22.4254 26.1681 22.7389 25.0338 22.7389C21.6696 22.7389 18.9171 20.1064 18.708 16.7964C18.6228 14.4465 20.4579 12.4992 20.4579 12.4992C22.3006 12.7315 23.2375 12.0308 23.2375 12.0308C25.9087 13.6026 26.2223 11.7211 26.2223 11.7211C24.9138 11.8566 25.4829 11.1133 25.4829 11.1133C25.8042 10.6642 26.5862 10.8191 26.5862 10.8191C30.6356 11.4849 29.3465 14.191 29.3465 14.191C30.5814 14.8762 30.0123 15.4569 30.0123 15.4569C29.1916 15.2324 29.091 15.5421 29.1955 15.906C29.3039 16.2777 29.5981 16.5409 29.8807 16.8003C30.082 16.9861 30.2137 17.2455 30.295 17.4507C30.3337 17.5281 30.3608 17.6172 30.3801 17.7062C30.3917 17.7488 30.3995 17.7797 30.3995 17.7797C30.3995 17.7875 30.3995 17.7914 30.3995 17.7952C30.4266 17.9462 30.4382 18.0895 30.4537 18.1862C30.4963 18.2288 30.5543 18.1862 30.6047 18.1243C30.8292 17.5939 31.7157 16.99 31.7157 17.8881C31.7157 18.9644 30.6279 18.6663 30.6279 18.6663L30.624 18.6779Z" fill="#DF3232"/>
<path d="M30.2911 17.4585C30.3337 17.5669 30.3608 17.6559 30.3762 17.714C30.3569 17.625 30.3298 17.5359 30.2911 17.4585Z" fill="white"/>
</svg>
