<svg width="325" height="500" viewBox="0 0 325 500" fill="none" xmlns="http://www.w3.org/2000/svg">
<g clip-path="url(#clip0_515_28543)">
<path d="M250 499.407C387.744 499.407 499.407 387.744 499.407 250C499.407 112.257 387.744 0.59375 250 0.59375C112.257 0.59375 0.59375 112.257 0.59375 250C0.59375 387.744 112.257 499.407 250 499.407Z" stroke="#222221" stroke-miterlimit="10"/>
<path d="M499.407 250C499.407 241.69 499.051 233.5 498.22 225.427L497.152 223.528C473.291 233.143 445.276 231.838 422.247 220.204C412.869 215.456 404.084 208.927 393.757 207.265C378.562 204.772 362.18 214.744 357.432 229.345C354.939 236.942 355.414 245.014 354.346 252.968C351.971 271.13 342.119 287.749 339.744 305.912C336.302 331.909 350.191 359.33 373.101 372.032C378.087 374.763 383.904 377.255 386.397 382.479C389.008 387.821 387.228 394.349 384.26 399.454C376.188 413.462 360.518 421.296 345.442 426.757C330.248 432.336 314.103 436.728 301.52 446.7C286.563 458.452 278.016 477.802 279.203 496.795L280.746 497.388C404.084 482.431 499.407 377.374 499.407 250Z" stroke="black" stroke-miterlimit="10"/>
<path d="M37.9883 118.827C39.6502 133.072 42.0244 148.504 52.7081 158C58.9997 163.698 67.428 166.31 75.7376 168.091C84.1659 169.871 92.7129 170.94 101.26 171.058C110.875 171.296 121.203 170.702 129.275 175.807C135.685 179.843 139.603 186.847 141.739 193.969C143.876 201.21 144.47 208.689 145.538 216.168C147.319 227.682 150.405 239.078 154.679 250C156.934 255.698 159.783 261.514 164.532 265.432C173.316 272.792 187.086 271.842 196.345 265.194C205.605 258.547 210.947 247.507 213.202 236.348C215.457 225.189 215.101 213.675 215.101 202.16C215.101 196.225 215.339 189.933 218.188 184.71C223.173 175.451 235.163 171.889 245.609 173.195C252.376 174.026 258.905 176.638 265.79 177.35C272.556 178.062 280.272 176.519 284.308 170.94C289.057 164.292 286.801 154.914 282.646 147.91C277.542 139.245 266.977 124.525 280.272 117.283C285.733 114.316 292.262 114.553 298.553 114.078C304.726 113.604 311.611 112.06 315.173 106.956C320.04 99.8333 316.241 90.218 312.086 82.7393C307.931 75.2607 303.42 66.2389 307.219 58.5228C308.644 55.6738 311.018 53.4184 313.036 50.9255C322.651 39.0546 321.583 19.8239 310.662 9.02139L309.118 8.07173C290.125 3.4421 270.182 0.949219 249.764 0.949219C160.377 1.06793 82.0291 48.1952 37.9883 118.827Z" stroke="black" stroke-miterlimit="10"/>
</g>
<defs>
<clipPath id="clip0_515_28543">
<rect width="500" height="500" fill="white"/>
</clipPath>
</defs>
</svg>
