<svg width="727" height="900" viewBox="0 0 727 900" fill="none" xmlns="http://www.w3.org/2000/svg">
<g clip-path="url(#clip0_470_15415)">
<path d="M450.002 898.934C697.94 898.934 898.934 697.94 898.934 450.002C898.934 202.064 697.94 1.07031 450.002 1.07031C202.064 1.07031 1.07031 202.064 1.07031 450.002C1.07031 697.94 202.064 898.934 450.002 898.934Z" stroke="#222221" stroke-miterlimit="10"/>
<path d="M898.932 450.002C898.932 435.044 898.291 420.301 896.795 405.771L894.872 402.352C851.923 419.66 801.496 417.309 760.043 396.369C743.162 387.822 727.35 376.07 708.761 373.079C681.41 368.591 651.923 386.54 643.376 412.822C638.889 426.497 639.743 441.027 637.82 455.343C633.547 488.036 615.812 517.95 611.538 550.643C605.342 597.437 630.342 646.796 671.581 669.66C680.555 674.574 691.026 679.061 695.513 688.463C700.214 698.079 697.008 709.831 691.667 719.019C677.137 744.232 648.932 758.335 621.795 768.164C594.444 778.207 565.385 786.113 542.735 804.061C515.812 825.215 500.427 860.044 502.564 894.232L505.342 895.301C727.35 868.378 898.932 679.275 898.932 450.002Z" stroke="black" stroke-miterlimit="10"/>
<path d="M68.375 213.89C71.3665 239.531 75.64 267.309 94.8707 284.403C106.196 294.66 121.366 299.36 136.324 302.566C151.495 305.771 166.879 307.694 182.264 307.907C199.572 308.335 218.161 307.266 232.691 316.454C244.23 323.719 251.281 336.326 255.127 349.147C258.973 362.181 260.042 375.643 261.965 389.104C265.17 409.831 270.725 430.343 278.418 450.001C282.478 460.258 287.606 470.728 296.153 477.779C311.965 491.027 336.751 489.318 353.418 477.352C370.084 465.386 379.7 445.514 383.76 425.429C387.819 405.343 387.178 384.617 387.178 363.89C387.178 353.207 387.606 341.882 392.734 332.48C401.708 315.813 423.29 309.403 442.093 311.754C454.272 313.249 466.025 317.95 478.418 319.232C490.597 320.514 504.486 317.737 511.751 307.694C520.298 295.728 516.238 278.848 508.76 266.241C499.572 250.643 480.554 224.147 504.486 211.113C514.315 205.771 526.067 206.198 537.392 205.343C548.503 204.489 560.896 201.711 567.307 192.523C576.067 179.702 569.23 162.395 561.751 148.933C554.272 135.472 546.153 119.232 552.99 105.343C555.554 100.215 559.828 96.1554 563.46 91.6682C580.768 70.3007 578.845 35.6853 559.187 16.2408L556.409 14.5314C522.221 6.19812 486.324 1.71094 449.572 1.71094C288.674 1.92461 147.649 86.7537 68.375 213.89Z" stroke="black" stroke-miterlimit="10"/>
</g>
<defs>
<clipPath id="clip0_470_15415">
<rect width="900" height="900" fill="white"/>
</clipPath>
</defs>
</svg>
