<svg width="36" height="30" viewBox="0 0 36 30" fill="none" xmlns="http://www.w3.org/2000/svg">
<path d="M18.2428 21.701H5.95947V0.750244H30.5261V21.701H28.0178H27.2525L27.268 22.4662L27.3705 27.5461L22.0452 21.9347L21.8233 21.701H21.5011H18.2428Z" fill="#FFED00" stroke="black" stroke-width="1.5"/>
<rect x="8.79285" y="6.41663" width="18.9" height="12.1" fill="white" stroke="black" stroke-width="1.5"/>
<path d="M5.53333 9.81665H5.91667V17.3833H5.53333C3.44386 17.3833 1.75 15.6895 1.75 13.6C1.75 11.5105 3.44386 9.81665 5.53333 9.81665Z" fill="#DC2F34" stroke="black" stroke-width="1.5"/>
<path d="M30.6014 9.81665H30.9848C33.0743 9.81665 34.7681 11.5105 34.7681 13.6C34.7681 15.6895 33.0743 17.3833 30.9848 17.3833H30.6014V9.81665Z" fill="#DC2F34" stroke="black" stroke-width="1.5"/>
<ellipse cx="14.8428" cy="11.3335" rx="1.13333" ry="1.13333" fill="black"/>
<ellipse cx="21.6429" cy="11.3335" rx="1.13333" ry="1.13333" fill="black"/>
<path d="M20.5095 13.6002C20.5095 14.5391 19.4947 15.3002 18.2429 15.3002C16.991 15.3002 15.9762 14.5391 15.9762 13.6002" stroke="black" stroke-width="1.5"/>
</svg>
