<svg width="80" height="16" viewBox="0 0 80 16" fill="none" xmlns="http://www.w3.org/2000/svg">
<path d="M8.08027 10.1318C10.6221 9.50751 12.4682 7.6346 12.4682 5.41386C12.4682 2.67584 9.6767 0.455109 6.23411 0.455109C2.79153 0.455109 0 2.67584 0 5.40494C0 7.61676 1.83724 9.49859 4.37012 10.1229V13.0928H0.294314V14.6714H12.2096V13.0928H8.08027V10.1318ZM6.19844 8.85645C4.66444 8.85645 3.42475 7.2511 3.42475 5.28008C3.42475 3.30015 4.66444 1.6948 6.19844 1.6948C7.73244 1.6948 8.97213 3.30015 8.97213 5.28008C8.97213 7.2511 7.73244 8.85645 6.19844 8.85645Z" fill="#003986"/>
<path d="M13.485 6.85855V6.87639C13.4939 7.44718 13.9577 7.90203 14.5196 7.90203C14.5285 7.90203 14.5285 7.90203 14.5374 7.90203V7.91095H18.7916V6.35019H16.9454V2.26546H18.7916V0.713623H13.4672V6.84071C13.4761 6.84963 13.485 6.84963 13.485 6.85855Z" fill="#003986"/>
<path d="M20.7893 7.89296L25.4092 7.90188V6.36788H23.1974V2.26532H25.4092V0.713478L19.7458 0.704559V6.87624L19.7637 6.89408C19.7726 7.44703 20.2275 7.89296 20.7893 7.89296Z" fill="#003986"/>
<path d="M25.5519 9.02603H13.3334V10.6492H17.4181V13.8778C17.4092 13.9313 17.4092 13.9759 17.4092 14.0294C17.4092 14.8231 18.2386 15.4742 19.2643 15.4742C20.281 15.4742 21.1104 14.8321 21.1193 14.0383H21.1282V10.6403H25.5608L25.5519 9.02603Z" fill="#003986"/>
<path d="M34.8361 0.455109V13.7617C34.8361 14.5554 35.6031 15.1887 36.6198 15.1887C37.6365 15.1887 38.3322 14.5465 38.3322 13.7617V0.455109H34.8361Z" fill="#003986"/>
<path d="M26.6845 2.31032H30.0557V10.7563C30.0557 10.7563 30.0557 12.3705 27.5942 12.8432H27.6031C26.9877 12.9324 26.6666 13.2624 26.6666 13.7797C26.6666 14.2969 26.9788 14.7072 27.505 14.7072L27.5139 14.7161C27.5139 14.7161 33.3645 14.9569 33.3645 11.1219V0.687134H26.6934V2.31032H26.6845Z" fill="#003986"/>
<path d="M51.7013 14.0641H48.6333V13.9482C48.6333 11.344 48.6333 8.74865 48.6333 6.14441C48.6333 5.76983 48.6154 5.38633 48.5887 5.01175C48.5708 4.66392 48.4549 4.33394 48.2587 4.04854C48.0179 3.71855 47.6522 3.51342 47.2509 3.46883C46.8317 3.39748 46.3947 3.49559 46.0379 3.74531C45.7704 3.94152 45.5652 4.21799 45.4671 4.53906C45.4047 4.73527 45.369 4.93148 45.369 5.13661C45.3601 5.44876 45.3512 5.76091 45.3512 6.07307C45.3512 8.69514 45.3512 11.3261 45.3512 13.9482V14.0641H42.2921C42.2921 14.0285 42.2832 14.0017 42.2832 13.966C42.2832 11.335 42.2832 8.70406 42.2832 6.07307C42.2743 5.48444 42.31 4.90473 42.3902 4.32502C42.4883 3.57585 42.8005 2.87128 43.2732 2.29157C43.7815 1.64943 44.4504 1.14107 45.1996 0.82C45.8774 0.543523 46.6087 0.427581 47.3311 0.481093C48.3925 0.552442 49.2932 1.00729 50.0959 1.67619C50.1137 1.69402 50.1405 1.71186 50.1673 1.7297C50.2832 1.63159 50.3991 1.54241 50.524 1.45322C51.1572 0.962698 51.9153 0.632709 52.7091 0.516767C53.5742 0.391907 54.4571 0.525686 55.2509 0.900268C56.0981 1.29269 56.8116 1.92591 57.3111 2.71075C57.5875 3.15668 57.7838 3.6472 57.864 4.1734C57.9621 4.7977 58.0067 5.42201 57.9978 6.05523C57.9978 8.70406 57.9978 11.344 57.9978 13.9928V14.0731H54.9387V13.9482C54.9387 11.1299 54.9387 8.31164 54.9387 5.49336C54.9476 5.19012 54.9209 4.87797 54.8495 4.58366C54.6444 3.84341 53.9844 3.53126 53.5028 3.47775C53.1015 3.42424 52.6912 3.53126 52.3523 3.76314C52.1294 3.9326 51.9688 4.1734 51.8796 4.44096C51.7815 4.73527 51.7191 5.04742 51.7191 5.36849C51.7102 5.62713 51.7013 5.89469 51.7013 6.15333C51.7013 8.75757 51.7013 11.3618 51.7013 13.966V14.0641Z" fill="#003986"/>
<path d="M45.369 14.0107C45.3601 14.858 44.6645 15.5447 43.8172 15.5358C42.9788 15.5269 42.301 14.8491 42.2921 14.0107" fill="#D6212E"/>
<path d="M58.0067 14.0107C57.9978 14.858 57.3022 15.5447 56.4549 15.5358C55.6165 15.5269 54.9387 14.8491 54.9298 14.0107" fill="#D6212E"/>
<path d="M51.6835 14.0198C51.6835 14.8582 51.0057 15.5449 50.1584 15.5449C49.32 15.5449 48.6333 14.8671 48.6333 14.0198" fill="#D6212E"/>
<path d="M72.0713 13.8058C72.0713 14.6352 72.7402 15.313 73.5785 15.313C74.408 15.313 75.0858 14.6441 75.0858 13.8058V0.552704H72.0802V13.8058H72.0713Z" fill="#D6212E"/>
<path d="M76.9856 13.8058C76.9856 14.6352 77.6545 15.313 78.4928 15.313C79.3312 15.313 80.0001 14.6441 80.0001 13.8058V0.552704H76.9945V13.8058H76.9856Z" fill="#D6212E"/>
<path d="M70.4214 9.3551C70.3769 8.69512 70.2163 8.04406 69.9577 7.42867C69.592 6.55465 68.9677 5.80549 68.1829 5.27037C67.3713 4.72633 66.4259 4.41418 65.4538 4.36959C64.5084 4.29824 63.5719 4.47661 62.7158 4.88687C61.5653 5.42199 60.6377 6.35844 60.1115 7.51786C59.6567 8.49891 59.5051 9.58698 59.6656 10.6572C59.7726 11.4064 60.0402 12.1199 60.4504 12.7531C61.4493 14.3049 62.8763 15.1522 64.7224 15.2592C65.2932 15.2771 65.8729 15.2235 66.4259 15.0808V12.0396C65.8729 12.2358 65.32 12.3607 64.7314 12.2804C64.3568 12.2358 64 12.102 63.6879 11.888C63.1349 11.5045 62.7693 10.898 62.689 10.2291C62.5998 9.63157 62.7158 9.02511 63.019 8.50783C63.5809 7.5357 64.7581 7.1076 65.8194 7.47327C66.6489 7.75866 67.1572 8.33837 67.3267 9.2124C67.4248 9.74752 67.4605 10.2916 67.4515 10.8356C67.4515 12.2091 67.4515 12.4053 67.4515 13.7787V13.8858H67.4605C67.4961 14.7152 68.2007 15.3573 69.0301 15.3127C69.8061 15.2771 70.4214 14.6528 70.4571 13.8858H70.466V13.7431C70.466 12.325 70.466 12.0753 70.466 10.6572C70.466 10.2202 70.4571 9.78319 70.4214 9.3551Z" fill="#D6212E"/>
</svg>
