<svg width="30" height="30" viewBox="0 0 30 30" fill="none" xmlns="http://www.w3.org/2000/svg">
<path d="M27.8028 27.2456L27.7684 27.3779C27.5321 28.1781 26.7902 28.8044 25.9275 28.8627L25.8378 28.8817C25.5325 28.9153 25.2551 28.7867 25.0847 28.5729L18.7658 21.04L21.3188 18.9352L27.644 26.498C27.8081 26.6819 27.8716 26.9809 27.8028 27.2456Z" fill="#FFED00" stroke="black"/>
<path d="M24.3537 11.4269C24.3537 17.4616 19.4616 22.3537 13.4269 22.3537C7.39212 22.3537 2.5 17.4616 2.5 11.4269C2.5 5.39212 7.39212 0.5 13.4269 0.5C19.4616 0.5 24.3537 5.39212 24.3537 11.4269Z" fill="#DC2F34" stroke="black"/>
<path d="M21.3728 11.4269C21.3728 15.8153 17.8153 19.3728 13.4269 19.3728C9.03847 19.3728 5.48096 15.8153 5.48096 11.4269C5.48096 7.03847 9.03847 3.48096 13.4269 3.48096C17.8153 3.48096 21.3728 7.03847 21.3728 11.4269Z" fill="#E6F8FF" stroke="black"/>
</svg>
