<svg width="81" height="80" viewBox="0 0 81 80" fill="none" xmlns="http://www.w3.org/2000/svg">
<path d="M13.6717 41.0091C12.1264 38.691 6.91073 38.7554 4.49609 39.0774C4.49609 45.2597 6.42781 50.9893 7.39366 53.0812C12.2229 61.7739 15.6034 64.1886 24.2962 68.052C31.2503 71.1427 38.1401 69.8227 40.7157 69.0178C40.2328 66.1203 38.3011 67.0861 34.9206 67.0861C31.5401 67.0861 29.6084 67.0861 29.1254 65.1544C28.6425 63.2227 35.4035 63.2227 34.9206 54.0471C34.4376 44.8714 25.7449 47.2861 20.4327 47.2861C15.1205 47.2861 15.6034 43.9067 13.6717 41.0091Z" fill="#FFED00"/>
<path d="M4.49609 39.0774C6.91073 38.7554 12.1264 38.691 13.6717 41.0091C15.6034 43.9067 15.1205 47.2861 20.4327 47.2861C25.7449 47.2861 34.4376 44.8714 34.9206 54.0471C35.4035 63.2227 28.6425 63.2227 29.1254 65.1544C29.6084 67.0861 31.5401 67.0861 34.9206 67.0861C38.3011 67.0861 40.2328 66.1203 40.7157 69.0178" stroke="black" stroke-width="1.5"/>
<path d="M16.0863 26.0374C11.4502 25.651 10.935 22.3349 11.257 20.7252C23.815 11.0655 21.8796 13.4812 28.1576 11.0666C33.1801 9.13489 39.265 10.2617 41.6796 11.0666V13.4812C41.6796 13.9642 40.2308 14.93 40.7138 15.8959C41.1967 16.8617 41.6796 17.8276 41.6796 19.7593C41.6796 21.3047 40.0699 20.7252 39.265 20.2422C34.9186 21.2081 37.8162 22.1739 38.2991 23.1398C38.7821 24.1057 39.7479 24.5886 37.8162 26.5203C35.8845 28.452 35.4016 27.0032 33.9528 26.0374C32.504 25.0715 32.0211 26.0374 30.5723 27.0032C29.1235 27.9691 31.0552 29.9008 30.5723 32.3154C30.0893 34.7301 27.6747 35.213 24.7771 34.2472C21.8796 33.2813 22.8454 29.9008 22.8454 27.9691C22.8454 26.0374 21.8814 26.5203 16.0863 26.0374Z" fill="#DC2F34"/>
<path d="M54.233 23.1419C54.6194 20.8239 56.6477 20.8882 57.6135 21.2102C61.0898 23.9155 63.57 34.8928 64.3755 40.0433C64.0535 42.9409 62.8301 49.895 60.5121 54.5312C58.194 59.1673 53.7511 62.9019 51.8194 64.1897C51.1755 63.2239 49.7911 60.9058 49.4047 59.3604C49.0184 57.8151 50.5315 56.1409 51.3364 55.497L57.1316 49.7019C58.2906 48.5428 57.6145 45.9994 57.1316 44.8726C54.7166 43.2628 49.4038 39.2706 47.472 36.1799C45.0574 32.3165 45.5403 31.3506 46.5062 29.9018C47.472 28.453 50.8525 28.936 52.7843 27.9701C54.716 27.0042 53.7501 26.0395 54.233 23.1419Z" fill="#486EDE"/>
<path d="M11.4531 21.0749C11.4821 23.5475 12.5735 25.5275 15.1813 25.769C17.0937 26.0684 19.0061 26.3678 20.9185 26.6672C21.5173 26.7638 22.1741 26.8797 22.5315 27.2854C22.8406 27.6427 22.8213 28.1257 22.8019 28.5603C22.7054 30.1057 22.7247 31.7476 23.6712 33.0902C24.6177 34.4327 26.8199 35.3213 28.5101 34.5969C30.4322 33.7759 30.9055 31.5931 30.5384 29.8545C30.2197 28.3671 30.3936 27.2081 31.6782 26.3195C31.6782 26.3195 32.8179 24.6582 34.0059 26.1456C35.1939 27.6331 36.4205 27.5461 38.4874 25.8559C40.6027 24.127 36.3143 22.8907 37.3188 21.1232C38.5454 19.7807 40.4481 21.0749 41.3367 20.2926C42.4475 19.3074 42.1287 18.4188 41.3367 17.2694C38.9317 13.7537 43.6258 14.0338 41.2788 11.1652" stroke="black" stroke-width="1.5" stroke-linecap="round" stroke-linejoin="round"/>
<path d="M34.2736 69.9925C50.8098 69.9925 64.2151 56.5872 64.2151 40.0509C64.2151 23.5147 50.8098 10.1094 34.2736 10.1094C17.7373 10.1094 4.33203 23.5147 4.33203 40.0509C4.33203 56.5872 17.7373 69.9925 34.2736 69.9925Z" stroke="black" stroke-width="1.5" stroke-linecap="round" stroke-linejoin="round"/>
<path d="M51.7343 64.2085C49.5321 62.3347 48.7884 58.3264 50.4207 56.0084C51.7343 54.1346 54.0427 53.2654 55.6074 51.6041C57.1721 49.9428 59.5463 45.8391 53.7705 42.865C50.8049 40.044 49.6173 39.0781 48.9219 39.0781" stroke="black" stroke-width="2" stroke-linecap="round" stroke-linejoin="round"/>
<path d="M47.4958 36.1347C47.4958 36.1347 42.6665 30.3396 48.4617 29.055C54.2568 27.7704 54.2568 27.1233 53.9381 24.2257C53.6193 21.3281 56.5169 21.3281 56.5169 21.3281" stroke="black" stroke-width="1.5" stroke-linecap="round" stroke-linejoin="round"/>
<path d="M72.7372 42.4944C72.5384 43.3108 71.7479 43.9938 70.9223 44.1073H70.7003H49.9649C48.8359 44.1073 47.1339 43.6451 45.7171 42.827C44.2608 41.9859 43.3945 40.9462 43.3945 39.9219C43.3945 38.8975 44.2608 37.8578 45.7171 37.0167C47.1339 36.1986 48.8359 35.7364 49.9649 35.7364H52.8466H52.9791H54.2544H54.7316L54.9337 35.3042C55.2544 34.6186 55.6782 33.7343 56.1329 32.7854C56.3571 32.3176 56.5887 31.8342 56.8193 31.3512L56.8214 31.3467C57.8332 29.1904 58.7892 27.1797 59.0325 26.6931L59.0391 26.68C59.0975 26.5632 59.1733 26.4118 59.2351 26.2525C59.4528 25.7843 59.6817 25.3127 60.0115 24.9474C60.3221 24.6033 60.7023 24.375 61.26 24.375H62.9162C63.7477 24.375 64.4352 25.053 64.4352 25.894V35.003V35.7618L65.1939 35.7529C66.8588 35.7336 68.38 34.9562 69.5136 33.6368L69.5136 33.6368L69.5184 33.6312C69.8321 33.2587 70.1108 32.789 70.3561 32.3638C71.0657 31.1349 71.7308 30.0888 73.168 30.0888H74.0292C74.5025 30.0888 74.8837 30.2827 75.1068 30.5736C75.341 30.8791 75.4375 31.3074 75.3363 31.7504C75.3361 31.7515 75.3358 31.7527 75.3355 31.7538L72.7374 42.4939C72.7373 42.494 72.7373 42.4942 72.7372 42.4944Z" fill="#FFED00" stroke="black" stroke-width="1.5"/>
</svg>
