<svg width="46" height="46" viewBox="0 0 46 46" fill="none" xmlns="http://www.w3.org/2000/svg">
<path d="M40.1315 23C40.1315 32.5625 32.3815 40.25 22.8815 40.25C13.3815 40.25 5.63147 32.5 5.63147 23C5.63147 13.5 13.3815 5.75 22.8815 5.75C32.3815 5.75 40.1315 13.5 40.1315 23Z" fill="#FFED00" stroke="black" stroke-miterlimit="10"/>
<path d="M34.3814 23C34.3814 29.3735 29.255 34.5 22.8815 34.5C16.508 34.5 11.3815 29.3735 11.3815 23C11.3815 16.6265 16.508 11.5 22.8815 11.5C29.1857 11.5 34.3814 16.6265 34.3814 23Z" fill="white" stroke="black" stroke-miterlimit="10"/>
<path d="M2.19373 35.501C1.56873 36.126 1.56873 37.126 2.19373 37.751C2.81873 38.376 3.81873 38.376 4.44373 37.751L10.4437 31.751L8.19373 29.501L2.19373 35.501Z" fill="#F12425" stroke="black" stroke-miterlimit="10"/>
<path d="M3.75721 37.0019C3.56971 37.1894 3.1947 37.1894 2.9447 37.0019C2.7572 36.8144 2.7572 36.4395 2.9447 36.1895C3.1322 36.002 3.50721 36.002 3.75721 36.1895C3.94471 36.4395 3.94471 36.8144 3.75721 37.0019Z" fill="white" stroke="black" stroke-miterlimit="10"/>
<path d="M21.8807 22.6269C21.5682 22.3144 21.0682 22.3144 20.7557 22.6269L17.8182 25.5644L16.6932 24.4394L19.6307 21.5019C19.9432 21.1894 19.9432 20.6894 19.6307 20.3769C19.3182 20.0644 18.8183 20.0644 18.5058 20.3769L15.5682 23.3144L14.4433 22.1895L17.3807 19.2519C17.6932 18.9394 17.6932 18.4395 17.3807 18.127C17.0682 17.8145 16.5682 17.8145 16.2557 18.127L12.0057 22.3769C11.0682 23.3144 11.0682 24.8769 12.0057 25.8769L8.25574 29.6269L10.5057 31.8769L14.2557 28.127C15.1932 29.0645 16.7557 29.0645 17.6932 28.127L21.9432 23.8769C22.1932 23.5019 22.1932 22.9394 21.8807 22.6269Z" fill="#EFEFEF" stroke="black" stroke-miterlimit="10"/>
<path d="M41.3173 36.6875C41.9423 37.3125 42.9422 37.3125 43.5672 36.6875C44.1922 36.0625 44.1922 35.0625 43.5672 34.4375L37.5673 28.4375L35.3173 30.6875L41.3173 36.6875Z" fill="#486EDE" stroke="black" stroke-miterlimit="10"/>
<path d="M42.7548 35.124C42.9423 35.3115 42.9423 35.6865 42.7548 35.9365C42.5673 36.124 42.1923 36.124 41.9423 35.9365C41.7548 35.749 41.7548 35.374 41.9423 35.124C42.1923 34.874 42.5673 34.874 42.7548 35.124Z" fill="white" stroke="black" stroke-miterlimit="10"/>
<path d="M29.5058 20.376C28.2558 19.126 26.2559 19.126 25.0059 20.376C23.7559 21.626 23.7559 23.626 25.0059 24.876L33.0684 32.9385L37.5684 28.4385L29.5058 20.376Z" fill="#EFEFEF" stroke="black" stroke-miterlimit="10"/>
</svg>
