<svg width="93" height="90" viewBox="0 0 93 90" fill="none" xmlns="http://www.w3.org/2000/svg">
<path d="M90 44.5C90 64.4954 70.479 81 46 81C21.521 81 2 64.4954 2 44.5C2 24.5046 21.521 8 46 8C70.479 8 90 24.5046 90 44.5Z" stroke="#DC2F34" stroke-width="2"/>
<path d="M24.6121 32.09L22.9181 32.468C22.7641 31.418 21.6721 30.76 20.2161 30.76C18.8441 30.76 17.9901 31.278 17.9901 32.202C17.9901 33.35 19.4461 33.49 20.9161 33.798C23.0301 34.246 24.6961 35.044 24.6961 37.046C24.6961 39.048 23.1001 40.21 20.5801 40.21C18.0741 40.21 16.2681 39.09 15.8061 37.102L17.5701 36.724C17.7521 37.928 18.9421 38.67 20.5661 38.67C21.9941 38.67 22.8761 38.068 22.8761 37.074C22.8761 36.01 21.7421 35.632 19.9781 35.31C18.0181 34.946 16.2401 34.204 16.2261 32.202C16.2121 30.326 17.8221 29.22 20.2161 29.22C22.7501 29.22 24.3041 30.41 24.6121 32.09ZM31.4559 40.21C28.2079 40.21 25.8839 37.872 25.8839 34.722C25.8839 31.558 28.2079 29.22 31.4559 29.22C33.3039 29.22 34.9839 30.074 35.8519 31.376L34.5219 32.328C33.8779 31.39 32.7159 30.774 31.4559 30.774C29.2159 30.774 27.6479 32.37 27.6479 34.722C27.6479 37.032 29.2159 38.656 31.4559 38.656C32.7719 38.656 33.9619 38.012 34.6059 37.018L35.9639 37.942C35.0959 39.314 33.3459 40.21 31.4559 40.21ZM43.3672 36.276L44.0812 37.2C44.9212 38.292 45.3272 38.558 46.1812 38.558V40.07C44.6272 40.07 44.0392 39.692 42.7512 38.068L41.5052 36.486H39.3912V40H37.6412V29.43H41.9952C44.3892 29.43 45.9012 30.76 45.9012 32.888C45.9012 34.526 45.0472 35.8 43.3672 36.276ZM39.3912 30.942V34.974H41.7432C43.1992 34.974 44.0812 34.218 44.0812 32.972C44.0812 31.726 43.2692 30.942 41.7852 30.942H39.3912ZM53.0181 40.21C49.7561 40.21 47.3761 37.9 47.3761 34.708C47.3761 31.516 49.7561 29.22 53.0181 29.22C56.2661 29.22 58.6461 31.516 58.6461 34.708C58.6461 37.9 56.2661 40.21 53.0181 40.21ZM53.0181 38.642C55.2861 38.642 56.8821 37.046 56.8821 34.708C56.8821 32.398 55.3141 30.788 53.0181 30.788C50.7221 30.788 49.1401 32.37 49.1401 34.708C49.1401 37.074 50.7781 38.642 53.0181 38.642ZM60.4595 40V29.43H62.2095V38.46H67.9495V40H60.4595ZM69.7017 40V29.43H71.4517V38.46H77.1917V40H69.7017Z" fill="#DC2F34"/>
</svg>
