<svg width="81" height="80" viewBox="0 0 81 80" fill="none" xmlns="http://www.w3.org/2000/svg">
<path d="M41.2206 24.6482C40.8592 24.6482 40.5882 24.8289 40.4075 25.1903C40.2268 25.4613 40.2268 25.9131 40.3172 26.1841C40.4075 26.3648 40.4075 26.6359 40.5882 26.7262C40.7689 26.9069 41.0399 26.9069 41.311 26.9069C42.1241 26.9069 42.7565 26.5455 42.5758 25.642C42.5758 25.0096 41.853 24.5579 41.2206 24.6482Z" fill="black"/>
<path d="M41.2192 24.4699C41.2192 24.3795 41.2192 24.2892 41.2192 24.2892C41.2192 24.2892 41.2192 24.2892 41.2192 24.1988V24.1085C41.2192 24.1085 41.2192 24.1085 41.2192 24.0181C41.2192 24.0181 41.2192 24.0181 41.2192 23.9278V23.8374C41.2192 23.8374 41.2192 23.8374 41.2192 23.7471L41.3095 23.6567C41.3095 23.6567 41.3095 23.6567 41.3999 23.6567L41.4902 23.5664C41.4902 23.5664 41.4902 23.5664 41.5806 23.5664H41.6709C41.7613 23.5664 41.7613 23.5664 41.8516 23.5664H41.942C41.942 23.5664 41.942 23.5664 42.0323 23.5664C42.1226 23.5664 42.213 23.6567 42.213 23.6567C42.213 23.6567 42.3033 23.6568 42.3033 23.7471C42.3033 23.7471 42.3937 23.7471 42.3937 23.8374C42.484 23.8374 42.484 23.8374 42.484 23.9278C42.8454 24.1988 43.0261 24.5602 43.0261 24.5602C43.0261 24.5602 42.9358 24.6506 43.0261 24.6506C42.9358 24.6506 42.9358 24.7409 42.9358 24.7409C43.0261 24.7409 43.0261 24.7409 43.0261 24.8313C43.0261 24.8313 43.1165 24.8313 43.1165 24.9216L43.0261 25.0119C43.0261 25.0119 43.0261 25.1023 43.1165 25.1023C43.1165 25.283 43.2068 25.3733 43.2972 25.554C43.2068 25.554 43.2068 25.6444 43.2068 25.7347C43.2068 25.7347 43.1165 25.7347 43.1165 25.8251H43.2068C43.1165 25.8251 43.2972 25.8251 43.1165 25.8251C43.2068 25.9154 43.2068 25.9154 43.2972 26.0058C43.3875 26.0961 43.1165 26.0058 43.2972 26.0961C43.3875 26.1865 43.2972 26.3671 43.2068 26.3671C43.2068 26.3671 43.2068 26.3672 43.2068 26.4575L43.2972 26.3671C43.2972 26.3671 43.2972 26.4575 43.2068 26.4575C43.1165 26.5478 43.2068 26.6382 43.1165 26.7285C42.9358 26.8189 42.8454 27.0899 42.6647 27.0899V27.1803H42.5744C42.5744 27.1803 42.5744 27.1803 42.484 27.1803C42.484 27.2706 42.484 27.4513 42.3937 27.4513C42.3937 27.4513 42.3937 27.4513 42.3937 27.361C42.3033 27.361 42.3937 27.4513 42.3937 27.4513L42.213 27.5417C42.213 27.4513 42.1227 27.5417 42.1227 27.4513V27.5417C42.1227 27.5417 42.1227 27.5417 42.1227 27.4513H42.0323L41.942 27.5417C41.7613 27.5417 41.6709 27.7223 41.4902 27.7223C41.3999 27.7223 41.3999 27.632 41.3999 27.7223C41.3095 27.7223 41.3095 27.7223 41.2192 27.7223C41.2192 27.7223 41.2192 27.7224 41.2192 27.8127C41.2192 27.8127 41.2192 27.7223 41.1288 27.7223C41.1288 27.8127 41.1288 27.8127 41.0385 27.8127C41.0385 27.8127 41.1288 27.8127 41.0385 27.7223C41.0385 27.7223 41.0385 27.7223 40.9481 27.7223C40.9481 27.7223 40.9481 27.7224 40.9481 27.8127C40.8578 27.903 40.8578 27.7224 40.7675 27.8127V27.7223C40.7675 27.8127 40.7675 27.8127 40.7675 27.8127C40.7675 27.7224 40.6771 27.8127 40.7675 27.7223C40.6771 27.7223 40.5868 27.7223 40.4964 27.7223V27.632C40.4964 27.632 40.4061 27.632 40.4061 27.7223C40.4061 27.632 40.3157 27.7224 40.3157 27.632V27.7223C40.2254 27.632 40.0447 27.5417 39.864 27.5417C39.864 27.4513 39.7736 27.361 39.7736 27.361C39.7736 27.2706 39.5929 27.2706 39.5929 27.1803C39.5929 27.0899 39.5026 27.0899 39.5929 26.9996H39.5026C39.4123 26.9996 39.5026 26.9996 39.5026 26.9092H39.4123C39.4123 26.9092 39.3219 26.8189 39.3219 26.7285H39.4123C39.2316 26.6382 39.3219 26.4575 39.2316 26.3671C39.3219 26.2768 39.1412 26.2768 39.3219 26.1865H39.2316C39.1412 25.9154 39.2316 25.6444 39.2316 25.4637C39.3219 25.283 39.4123 25.0119 39.5026 25.0119C39.5026 25.0119 39.5026 25.0119 39.4123 25.0119C39.4123 24.9216 39.5026 25.0119 39.5026 25.0119V24.9216C39.593 24.8313 39.5929 24.6506 39.7736 24.6506V24.5602H39.864V24.4699C39.864 24.4699 39.864 24.4699 39.9543 24.3795C39.9543 24.3795 39.9543 24.2892 40.0447 24.3795V24.2892C40.0447 24.2892 40.0447 24.2892 40.0447 24.1988C40.0447 24.1988 40.135 24.1085 40.135 24.1988L40.2254 24.2892L40.3157 24.1988C40.3157 24.1988 40.3157 24.1085 40.4061 24.1085C40.4061 24.1085 40.4061 24.1085 40.4964 24.1085V24.1988V24.2892C40.4964 24.2892 40.4964 24.2892 40.4964 24.3795C41.1288 24.3795 41.1288 24.3795 41.2192 24.4699C41.1288 24.5602 41.1288 24.4699 41.2192 24.4699C41.2192 24.5602 41.2192 24.5602 41.2192 24.4699C41.2192 24.5602 41.2192 24.5602 41.2192 24.5602C41.2192 24.5602 41.2192 24.5602 41.2192 24.6506C41.2192 24.6506 41.2192 24.6506 41.2192 24.7409C41.2192 24.7409 41.2192 24.7409 41.2192 24.8313V24.9216V25.0119C41.2192 25.0119 41.2192 25.012 41.2192 25.1023V25.1926C41.2192 25.3733 41.2192 25.3733 41.1288 25.4637C41.0385 25.554 41.0385 25.6444 41.0385 25.6444H40.9481C40.9481 25.6444 40.9481 25.6444 41.0385 25.6444C41.0385 25.7347 41.0385 25.7347 41.1288 25.8251C41.0385 25.8251 41.0385 25.9154 41.0385 25.9154C41.0385 25.9154 41.0385 25.9154 40.9481 25.9154H41.0385C40.9481 25.9154 41.1288 25.9154 40.9481 25.9154C41.0385 25.9154 41.0385 25.9154 41.1288 25.9154C40.9481 26.0058 41.2192 25.9154 41.1288 25.9154C41.2192 25.9154 41.1288 25.9154 41.1288 26.0058V25.9154C41.1288 25.9154 41.1288 25.9154 41.1288 26.0058C41.1288 25.9154 41.2192 25.8251 41.2192 25.8251C41.2192 25.8251 41.2192 25.8251 41.2192 25.9154V25.8251H41.3095C41.3095 25.9154 41.3095 25.9154 41.3095 25.9154V25.8251C41.3095 25.8251 41.3095 25.8251 41.3095 25.9154V26.0058C41.3095 26.0058 41.3095 26.0058 41.3999 25.9154C41.4902 25.9154 41.5806 25.8251 41.5806 25.8251C41.5806 25.8251 41.5806 25.8251 41.6709 25.8251C41.6709 25.8251 41.6709 25.8251 41.6709 25.7347C41.6709 25.6444 41.7613 25.8251 41.7613 25.7347C41.7613 25.7347 41.7613 25.7347 41.7613 25.8251C41.7613 25.7347 41.6709 25.7347 41.6709 25.7347C41.6709 25.8251 41.6709 25.7347 41.7613 25.8251V25.7347C41.7613 25.7347 41.7613 25.8251 41.8516 25.8251C41.8516 25.8251 41.8516 25.8251 41.8516 25.7347L41.7613 25.6444C41.7613 25.6444 41.7613 25.6444 41.8516 25.6444C41.8516 25.6444 41.7613 25.6444 41.942 25.6444H41.8516C41.6709 25.6444 41.8516 25.554 41.7613 25.554C41.8516 25.4637 41.6709 25.554 41.8516 25.4637H41.7613C41.7613 25.4637 41.7613 25.3733 41.6709 25.283C41.6709 25.1926 41.5806 25.1926 41.6709 25.1023C41.6709 25.1023 41.6709 25.1023 41.6709 25.1926V25.1023C41.6709 25.1023 41.6709 25.1023 41.5806 25.1023C41.5806 25.012 41.4902 25.1023 41.4902 24.9216C41.4902 24.9216 41.4902 24.9216 41.4902 24.8313V24.7409C41.4902 24.7409 41.4902 24.7409 41.4902 24.6506V24.5602V24.4699C41.4902 24.4699 41.4902 24.4699 41.4902 24.3795C41.4902 24.3795 41.4902 24.3795 41.4902 24.2892C41.2192 24.5602 41.2192 24.5602 41.2192 24.4699Z" fill="black"/>
<path d="M40.6758 24.8325C40.9468 24.7422 41.3082 24.7422 41.5792 24.7422L40.6758 24.8325Z" fill="black"/>
<path d="M41.5791 24.9205C41.5791 25.0108 41.5791 25.1012 41.5791 25.1012C41.5791 25.1012 41.5791 25.1012 41.5791 25.1915V25.2819C41.5791 25.2819 41.5791 25.2819 41.5791 25.3722C41.5791 25.3722 41.5791 25.3722 41.5791 25.4626V25.5529C41.5791 25.4626 41.5791 25.6432 41.5791 25.4626C41.5791 25.5529 41.5791 25.5529 41.5791 25.6432C41.5791 25.4626 41.5791 25.7336 41.5791 25.6432V25.7336C41.5791 25.7336 41.5791 25.7336 41.5791 25.824C41.5791 25.7336 41.5791 25.8239 41.5791 25.7336C41.5791 25.8239 41.5791 25.9143 41.5791 25.9143C41.5791 25.9143 41.5791 25.9143 41.5791 25.824V25.9143C41.5791 25.8239 41.5791 25.824 41.5791 25.824V25.9143C41.5791 25.9143 41.5791 25.9143 41.5791 25.824V25.7336C41.5791 25.7336 41.5791 25.7336 41.5791 25.824V25.9143C41.5791 25.9143 41.5791 25.9143 41.5791 26.0046V25.9143C41.5791 25.9143 41.5791 25.9143 41.5791 26.0046C41.5791 25.9143 41.5791 26.095 41.5791 26.0046V25.9143C41.5791 26.0046 41.5791 26.0046 41.5791 26.0046C41.5791 25.9143 41.5791 26.0046 41.5791 25.9143C41.5791 25.9143 41.5791 25.9143 41.5791 26.0046C41.5791 25.9143 41.5791 26.095 41.5791 26.0046V26.095C41.5791 26.095 41.5791 26.095 41.5791 26.0046C41.5791 26.0046 41.5791 26.0046 41.5791 26.095C41.5791 26.0046 41.5791 26.1853 41.5791 26.0046V26.095V26.1853C41.5791 26.095 41.5791 26.1853 41.4888 26.095C41.4888 26.095 41.4888 26.095 41.4888 26.1853V26.095C41.4888 26.095 41.4888 26.095 41.4888 26.1853C41.4888 26.095 41.4888 26.1853 41.4888 26.095V26.1853V26.2757C41.4888 26.1853 41.4888 26.1853 41.4888 26.1853V26.095V26.0046C41.4888 26.0046 41.4888 26.0046 41.4888 25.9143L41.3984 25.824C41.3984 25.824 41.3984 25.8239 41.3984 25.7336C41.3984 25.7336 41.3984 25.7336 41.3984 25.6432V25.5529V25.4626C41.3984 25.4626 41.3984 25.4626 41.3984 25.3722V25.2819C41.3984 25.0108 41.5791 25.1012 41.5791 25.1012V25.1915C41.5791 25.1915 41.5791 25.1915 41.5791 25.1012C41.5791 25.1915 41.5791 25.0108 41.5791 25.1915C41.5791 25.1012 41.5791 25.1012 41.5791 25.0108C41.5791 24.9205 41.5791 25.1915 41.5791 25.0108V24.9205C41.5791 24.9205 41.5791 24.9205 41.5791 24.8301C41.5791 24.9205 41.5791 24.8301 41.6695 24.9205C41.6695 24.8301 41.6695 24.7398 41.6695 24.7398C41.6695 24.7398 41.6695 24.7398 41.6695 24.8301V24.7398C41.6695 24.8301 41.6695 24.8301 41.6695 24.8301V24.7398C41.6695 24.7398 41.6695 24.7398 41.6695 24.8301V24.9205C41.6695 24.9205 41.6695 24.9205 41.6695 24.8301C41.6695 24.8301 41.6695 24.7398 41.7598 24.7398C41.7598 24.7398 41.7598 24.7398 41.7598 24.6494V24.7398C41.7598 24.7398 41.7598 24.7398 41.7598 24.6494C41.7598 24.5591 41.7598 24.7398 41.7598 24.6494V24.7398C41.7598 24.6494 41.7598 24.6494 41.7598 24.6494C41.7598 24.7398 41.7598 24.6494 41.7598 24.7398C41.7598 24.7398 41.7598 24.7398 41.7598 24.6494C41.7598 24.5591 41.7598 24.7398 41.7598 24.6494V24.5591C41.7598 24.5591 41.7598 24.5591 41.7598 24.6494C41.7598 24.6494 41.7598 24.6494 41.7598 24.5591C41.7598 24.6494 41.7598 24.4687 41.7598 24.6494V24.5591C41.7598 24.3784 41.7598 24.5591 41.8502 24.4688C41.8502 24.5591 41.8502 24.3784 41.8502 24.5591V24.4688C41.8502 24.4688 41.9405 24.5591 41.9405 24.4688C41.9405 24.5591 42.0309 24.4687 42.0309 24.6494C42.0309 24.6494 42.0309 24.6494 42.0309 24.5591V24.6494C42.0309 24.6494 42.0309 24.6494 42.0309 24.5591C42.0309 24.6494 42.0309 24.5591 42.0309 24.6494V24.7398C42.0309 24.7398 42.0309 24.7398 42.0309 24.8301V24.9205V25.0108C42.0309 25.0108 42.0309 25.0108 42.0309 25.1012C41.5791 24.8301 41.5791 24.8301 41.5791 24.9205Z" fill="black"/>
<path d="M41.2206 31.7891C40.8592 31.7891 40.5882 31.9698 40.4075 32.3311C40.2268 32.6022 40.2268 33.0539 40.3172 33.325C40.4075 33.5056 40.4075 33.7767 40.5882 33.867C40.7689 34.0477 41.0399 34.0477 41.311 34.0477C42.1241 34.0477 42.7565 33.6863 42.5758 32.7829C42.5758 32.2408 41.853 31.7891 41.2206 31.7891Z" fill="black"/>
<path d="M41.2192 31.6964C41.2192 31.6061 41.2192 31.6061 41.2192 31.6964C41.2192 31.6061 41.2192 31.5157 41.2192 31.5157C41.2192 31.5157 41.2192 31.5157 41.2192 31.4254V31.335C41.2192 31.335 41.2192 31.335 41.2192 31.2447C41.2192 31.2447 41.2192 31.2447 41.2192 31.1544V31.064C41.2192 31.064 41.2192 31.064 41.2192 30.9737L41.3095 30.8833C41.3095 30.8833 41.3095 30.8833 41.3999 30.8833L41.4902 30.793C41.4902 30.793 41.4902 30.793 41.5806 30.793H41.6709C41.7613 30.793 41.7613 30.793 41.8516 30.793H41.942C41.942 30.793 41.942 30.793 42.0323 30.793C42.1226 30.793 42.213 30.8833 42.213 30.8833C42.213 30.8833 42.3033 30.8833 42.3033 30.9737C42.3033 30.9737 42.3937 30.9737 42.3937 31.064C42.484 31.064 42.484 31.064 42.484 31.1544C42.8454 31.4254 43.0261 31.7868 43.0261 31.7868C43.0261 31.7868 42.9358 31.8771 43.0261 31.8771C42.9358 31.8771 42.9358 31.9675 42.9358 31.9675C43.0261 31.9675 43.0261 31.9675 43.0261 32.0578C43.0261 32.0578 43.1165 32.0578 43.1165 32.1482L43.0261 32.2385C43.0261 32.2385 43.0261 32.3289 43.1165 32.3289C43.1165 32.5096 43.2068 32.5999 43.2972 32.7806C43.2068 32.7806 43.2068 32.8709 43.2068 32.9613C43.2068 32.9613 43.1165 32.9613 43.1165 33.0516H43.2068C43.1165 33.0516 43.2972 33.0516 43.1165 33.0516C43.2068 33.142 43.2068 33.142 43.2972 33.2323C43.3875 33.3227 43.1165 33.2323 43.2972 33.3227C43.3875 33.413 43.2972 33.5937 43.2068 33.5937C43.2068 33.5937 43.2068 33.5937 43.2068 33.6841L43.2972 33.5937C43.2972 33.5937 43.2972 33.6841 43.2068 33.6841C43.1165 33.7744 43.2068 33.8648 43.1165 33.9551C42.9358 34.0455 42.8454 34.3165 42.6647 34.3165V34.4068H42.5744C42.5744 34.4068 42.5744 34.4068 42.484 34.4068C42.484 34.4972 42.484 34.6779 42.3937 34.6779C42.3937 34.6779 42.3937 34.6779 42.3937 34.5875C42.3033 34.5875 42.3937 34.6779 42.3937 34.6779L42.213 34.7682C42.213 34.6779 42.1227 34.7682 42.1227 34.6779V34.7682C42.1227 34.7682 42.1227 34.7682 42.1227 34.6779H42.0323L41.942 34.7682C41.7613 34.7682 41.6709 34.9489 41.4902 34.9489C41.3999 34.9489 41.3999 34.8586 41.3999 34.9489C41.3095 34.9489 41.3095 34.9489 41.2192 34.9489C41.2192 34.9489 41.2192 34.9489 41.2192 35.0393C41.2192 35.0393 41.2192 34.9489 41.1288 34.9489C41.1288 35.0393 41.1288 35.0393 41.0385 35.0393C41.0385 35.0393 41.1288 35.0393 41.0385 34.9489C41.0385 34.9489 41.0385 34.9489 40.9481 34.9489C40.9481 34.9489 40.9481 34.9489 40.9481 35.0393C40.8578 35.1296 40.8578 34.9489 40.7675 35.0393V34.9489C40.7675 35.0393 40.7675 35.0393 40.7675 35.0393C40.7675 34.9489 40.6771 35.0393 40.7675 34.9489C40.6771 34.9489 40.5868 34.9489 40.4964 34.9489V34.8586C40.4964 34.8586 40.4061 34.8586 40.4061 34.9489C40.4061 34.8586 40.3157 34.9489 40.3157 34.8586V34.9489C40.2254 34.8586 40.0447 34.7682 39.864 34.7682C39.864 34.6779 39.7736 34.5875 39.7736 34.5875C39.7736 34.4972 39.5929 34.4972 39.5929 34.4068C39.5929 34.3165 39.5026 34.3165 39.5929 34.2261H39.5026C39.4123 34.2261 39.5026 34.2261 39.5026 34.1358H39.4123C39.4123 34.1358 39.3219 34.0455 39.3219 33.9551H39.4123C39.2316 33.8648 39.3219 33.6841 39.2316 33.5937C39.3219 33.5034 39.1412 33.5034 39.3219 33.413H39.2316C39.1412 33.142 39.2316 32.8709 39.2316 32.6902C39.3219 32.5095 39.4123 32.2385 39.5026 32.2385C39.5026 32.2385 39.5026 32.2385 39.4123 32.2385C39.4123 32.1482 39.5026 32.2385 39.5026 32.2385V32.1482C39.593 32.0578 39.5929 31.8771 39.7736 31.8771V31.7868H39.864V31.6964C39.864 31.6964 39.864 31.6964 39.9543 31.6061C39.9543 31.6061 39.9543 31.5157 40.0447 31.6061V31.5157C40.0447 31.5157 40.0447 31.5157 40.0447 31.4254C40.0447 31.4254 40.135 31.335 40.135 31.4254L40.2254 31.5157L40.3157 31.4254C40.3157 31.4254 40.3157 31.335 40.4061 31.335C40.4061 31.335 40.4061 31.335 40.4964 31.335V31.4254V31.5157C40.4964 31.5157 40.4964 31.5157 40.4964 31.6061C41.1288 31.5157 41.1288 31.6061 41.2192 31.6964C41.1288 31.6964 41.1288 31.6964 41.2192 31.6964C41.2192 31.7868 41.2192 31.7868 41.2192 31.6964C41.2192 31.7868 41.2192 31.7868 41.2192 31.7868C41.2192 31.7868 41.2192 31.7868 41.2192 31.8771C41.2192 31.8771 41.2192 31.8771 41.2192 31.9675C41.2192 31.9675 41.2192 31.9675 41.2192 32.0578V32.1482V32.2385C41.2192 32.2385 41.2192 32.2385 41.2192 32.3289V32.4192C41.2192 32.5999 41.2192 32.5999 41.1288 32.6902C41.0385 32.7806 41.0385 32.8709 41.0385 32.8709H40.9481C40.9481 32.8709 40.9481 32.8709 41.0385 32.8709C41.0385 32.9613 41.0385 32.9613 41.1288 33.0516C41.0385 33.0516 41.0385 33.142 41.0385 33.142C41.0385 33.142 41.0385 33.142 40.9481 33.142H41.0385C40.9481 33.142 41.1288 33.142 40.9481 33.142C41.0385 33.142 41.0385 33.142 41.1288 33.142C40.9481 33.2323 41.2192 33.142 41.1288 33.142C41.2192 33.142 41.1288 33.142 41.1288 33.2323V33.142C41.1288 33.142 41.1288 33.142 41.1288 33.2323C41.1288 33.142 41.2192 33.0516 41.2192 33.0516C41.2192 33.0516 41.2192 33.0516 41.2192 33.142V33.0516H41.3095C41.3095 33.142 41.3095 33.142 41.3095 33.142V33.0516C41.3095 33.0516 41.3095 33.0516 41.3095 33.142V33.2323C41.3095 33.2323 41.3095 33.2323 41.3999 33.142C41.4902 33.142 41.5806 33.0516 41.5806 33.0516C41.5806 33.0516 41.5806 33.0516 41.6709 33.0516C41.6709 33.0516 41.6709 33.0516 41.6709 32.9613C41.6709 32.8709 41.7613 33.0516 41.7613 32.9613C41.7613 32.9613 41.7613 32.9613 41.7613 33.0516C41.7613 32.9613 41.6709 32.9613 41.6709 32.9613C41.6709 33.0516 41.6709 32.9613 41.7613 33.0516V32.9613C41.7613 32.9613 41.7613 33.0516 41.8516 33.0516C41.8516 33.0516 41.8516 33.0516 41.8516 32.9613L41.7613 32.8709C41.7613 32.8709 41.7613 32.8709 41.8516 32.8709C41.8516 32.8709 41.7613 32.8709 41.942 32.8709H41.8516C41.6709 32.8709 41.8516 32.7806 41.7613 32.7806C41.8516 32.6902 41.6709 32.7806 41.8516 32.6902H41.7613C41.7613 32.6902 41.7613 32.5999 41.6709 32.5096C41.6709 32.4192 41.5806 32.4192 41.6709 32.3289C41.6709 32.3289 41.6709 32.3289 41.6709 32.4192V32.3289C41.6709 32.3289 41.6709 32.3289 41.5806 32.3289C41.5806 32.2385 41.4902 32.3289 41.4902 32.1482C41.4902 32.1482 41.4902 32.1482 41.4902 32.0578V31.9675C41.4902 31.9675 41.4902 31.9675 41.4902 31.8771V31.7868V31.6964C41.4902 31.6964 41.4902 31.6964 41.4902 31.6061C41.4902 31.6061 41.4902 31.6061 41.4902 31.5157C41.2192 31.7868 41.2192 31.6964 41.2192 31.6964Z" fill="black"/>
<path d="M40.6758 32.0591C40.9468 31.9688 41.3082 31.9688 41.5792 31.9688L40.6758 32.0591Z" fill="black"/>
<path d="M41.5791 32.0611C41.5791 32.1515 41.5791 32.2418 41.5791 32.2418C41.5791 32.2418 41.5791 32.2418 41.5791 32.3322V32.4225C41.5791 32.4225 41.5791 32.4225 41.5791 32.5128C41.5791 32.5128 41.5791 32.5128 41.5791 32.6032V32.6935C41.5791 32.6032 41.5791 32.7839 41.5791 32.6032C41.5791 32.6935 41.5791 32.6935 41.5791 32.7839C41.5791 32.6032 41.5791 32.8742 41.5791 32.7839V32.8742C41.5791 32.8742 41.5791 32.8742 41.5791 32.9646C41.5791 32.8742 41.5791 32.9646 41.5791 32.8742C41.5791 32.9646 41.5791 33.0549 41.5791 33.0549C41.5791 33.0549 41.5791 33.0549 41.5791 32.9646V33.0549C41.5791 32.9646 41.5791 32.9646 41.5791 32.9646V33.0549C41.5791 33.0549 41.5791 33.0549 41.5791 32.9646V32.8742C41.5791 32.8742 41.5791 32.8742 41.5791 32.9646V33.0549C41.5791 33.0549 41.5791 33.0549 41.5791 33.1453V33.0549C41.5791 33.0549 41.5791 33.0549 41.5791 33.1453C41.5791 33.0549 41.5791 33.2356 41.5791 33.1453V33.0549C41.5791 33.1453 41.5791 33.1453 41.5791 33.1453C41.5791 33.0549 41.5791 33.1453 41.5791 33.0549C41.5791 33.0549 41.5791 33.0549 41.5791 33.1453C41.5791 33.0549 41.5791 33.2356 41.5791 33.1453V33.2356C41.5791 33.2356 41.5791 33.2356 41.5791 33.1453C41.5791 33.1453 41.5791 33.1453 41.5791 33.2356C41.5791 33.1453 41.5791 33.326 41.5791 33.1453V33.2356V33.326C41.5791 33.2356 41.5791 33.326 41.4888 33.2356C41.4888 33.2356 41.4888 33.2356 41.4888 33.326V33.2356C41.4888 33.2356 41.4888 33.2356 41.4888 33.326C41.4888 33.2356 41.4888 33.326 41.4888 33.2356V33.326V33.4163C41.4888 33.326 41.4888 33.326 41.4888 33.326V33.2356V33.1453C41.4888 33.1453 41.4888 33.1453 41.4888 33.0549L41.3984 32.9646C41.3984 32.9646 41.3984 32.9646 41.3984 32.8742C41.3984 32.8742 41.3984 32.8742 41.3984 32.7839V32.6935V32.6032C41.3984 32.6032 41.3984 32.6032 41.3984 32.5128V32.4225C41.3984 32.1514 41.5791 32.2418 41.5791 32.2418V32.3322C41.5791 32.3322 41.5791 32.3321 41.5791 32.2418C41.5791 32.3321 41.5791 32.1515 41.5791 32.3322C41.5791 32.2418 41.5791 32.2418 41.5791 32.1515C41.5791 32.0611 41.5791 32.3322 41.5791 32.1515V32.0611C41.5791 32.0611 41.5791 32.0611 41.5791 31.9708C41.5791 32.0611 41.5791 31.9708 41.6695 32.0611C41.6695 31.9708 41.6695 31.8804 41.6695 31.8804C41.6695 31.8804 41.6695 31.8804 41.6695 31.9708V31.8804C41.6695 31.9708 41.6695 31.9708 41.6695 31.9708V31.8804C41.6695 31.8804 41.6695 31.8804 41.6695 31.9708V32.0611C41.6695 32.0611 41.6695 32.0611 41.6695 31.9708C41.6695 31.9708 41.6695 31.8804 41.7598 31.8804C41.7598 31.8804 41.7598 31.8804 41.7598 31.7901V31.8804C41.7598 31.8804 41.7598 31.8804 41.7598 31.7901C41.7598 31.6997 41.7598 31.8804 41.7598 31.7901V31.8804C41.7598 31.7901 41.7598 31.7901 41.7598 31.7901C41.7598 31.8804 41.7598 31.7901 41.7598 31.8804C41.7598 31.8804 41.7598 31.8804 41.7598 31.7901C41.7598 31.6997 41.7598 31.8804 41.7598 31.7901V31.6997C41.7598 31.6997 41.7598 31.6997 41.7598 31.7901C41.7598 31.7901 41.7598 31.7901 41.7598 31.6997C41.7598 31.7901 41.7598 31.6094 41.7598 31.7901V31.6997C41.7598 31.519 41.7598 31.6997 41.8502 31.6094C41.8502 31.6997 41.8502 31.519 41.8502 31.6997V31.6094C41.8502 31.6094 41.9405 31.6997 41.9405 31.6094C41.9405 31.6997 42.0309 31.6094 42.0309 31.7901C42.0309 31.7901 42.0309 31.7901 42.0309 31.6997V31.7901C42.0309 31.7901 42.0309 31.7901 42.0309 31.6997C42.0309 31.7901 42.0309 31.6997 42.0309 31.7901V31.8804C42.0309 31.8804 42.0309 31.8804 42.0309 31.9708V32.0611V32.1515C42.0309 32.1515 42.0309 32.1515 42.0309 32.2418C41.5791 31.9708 41.5791 32.0611 41.5791 32.0611C41.5791 32.1515 41.5791 32.1515 41.5791 32.0611Z" fill="black"/>
<mask id="path-9-inside-1_3872_47470" fill="white">
<path d="M70.4028 34.3181C68.2345 27.7228 63.0847 22.2117 56.9411 19.0495C49.1713 15.0743 38.0587 13.6287 29.9275 17.1522C25.6812 18.9592 21.5252 21.0372 18.0017 23.9282C14.4782 26.8193 11.5871 30.7946 10.6836 35.3119"/>
</mask>
<path d="M70.4028 34.3181C68.2345 27.7228 63.0847 22.2117 56.9411 19.0495C49.1713 15.0743 38.0587 13.6287 29.9275 17.1522C25.6812 18.9592 21.5252 21.0372 18.0017 23.9282C14.4782 26.8193 11.5871 30.7946 10.6836 35.3119" fill="white"/>
<path d="M56.9411 19.0495L57.8564 17.2713L57.8521 17.269L56.9411 19.0495ZM29.9275 17.1522L30.7106 18.9926L30.7227 18.9874L29.9275 17.1522ZM72.3027 33.6935C69.9495 26.5358 64.404 20.6414 57.8564 17.2713L56.0258 20.8278C61.7654 23.782 66.5194 28.9098 68.5028 34.9428L72.3027 33.6935ZM57.8521 17.269C49.7043 13.1004 37.9529 11.4948 29.1322 15.3171L30.7227 18.9874C38.1644 15.7626 48.6383 17.0481 56.0302 20.83L57.8521 17.269ZM29.1443 15.3119C24.8406 17.1433 20.4774 19.3098 16.7331 22.3821L19.2703 25.4744C22.573 22.7645 26.5217 20.775 30.7106 18.9926L29.1443 15.3119ZM16.7331 22.3821C12.9597 25.4781 9.74046 29.8296 8.72243 34.9197L12.6448 35.7042C13.4337 31.7597 15.9966 28.1605 19.2703 25.4744L16.7331 22.3821Z" fill="black" mask="url(#path-9-inside-1_3872_47470)"/>
<path d="M25.7695 18.0552H25.8599V17.9648L25.7695 18.0552Z" fill="black"/>
<path d="M25.2266 18.2349L25.3169 18.1445C25.2266 18.1445 25.2266 18.2349 25.2266 18.2349Z" fill="black"/>
<path d="M69.2271 33.3252C69.2271 33.2349 69.1367 33.2349 69.1367 33.1445L69.2271 33.3252Z" fill="black"/>
<path d="M53.8653 20.7643C54.1363 20.945 54.4977 21.3064 54.046 21.3968C53.7749 21.4871 53.5039 21.3064 53.5039 21.0354C53.5039 20.7644 53.6846 20.674 53.8653 20.7643Z" fill="black"/>
<path d="M53.7751 20.7652C53.6847 20.8556 53.6847 20.8556 53.6847 20.8556C53.6847 20.9459 53.7751 20.9459 53.7751 20.7652C53.6847 20.8556 53.6847 20.8556 53.6847 20.8556C53.6847 20.8556 53.6847 20.8556 53.6847 20.9459C53.6847 20.9459 53.6847 20.9459 53.6847 21.0363V21.1266V21.217C53.6847 21.217 53.6847 21.217 53.7751 21.217H53.8654H53.9558C54.0461 21.1266 53.9558 21.1266 53.9558 21.1266H53.8654H53.7751C53.6847 21.1266 53.6847 21.1266 53.6847 21.1266H53.7751C53.7751 21.1266 53.7751 21.1266 53.6847 21.1266C53.5944 21.1266 53.7751 21.1266 53.5944 21.1266C53.6847 21.1266 53.6847 21.1266 53.6847 21.1266C53.5944 21.1266 53.7751 21.1266 53.6847 21.1266C53.6847 21.1266 53.6847 21.1266 53.5944 21.1266C53.5944 21.1266 53.5944 21.1266 53.5944 21.0363C53.504 21.0363 53.5944 21.0363 53.504 21.0363L53.5944 20.9459C53.5944 20.9459 53.5944 21.0363 53.504 21.0363C53.504 21.0363 53.504 21.0363 53.504 20.9459C53.504 20.9459 53.5944 20.7652 53.504 20.8556V20.7652C53.504 20.8556 53.504 20.7652 53.504 20.8556C53.504 20.8556 53.504 20.8556 53.504 20.7652V20.6749C53.8654 20.7652 53.8654 20.7652 53.7751 20.7652C53.8654 20.8556 53.7751 20.8556 53.7751 20.7652C53.7751 20.8556 53.6847 20.8556 53.7751 20.7652C53.7751 20.8556 53.7751 20.8556 53.7751 20.7652C53.6847 20.8556 53.6847 20.8556 53.6847 20.8556C53.6847 20.8556 53.5944 20.8556 53.5944 20.9459C53.4137 20.9459 53.504 21.1266 53.504 21.217C53.5944 21.217 53.4137 21.3073 53.5944 21.3073H53.504C53.504 21.3977 53.5944 21.3977 53.504 21.3977C53.504 21.3977 53.504 21.3977 53.5944 21.3073C53.5944 21.3073 53.5944 21.3073 53.5944 21.217L53.504 21.3073V21.217C53.504 21.217 53.504 21.217 53.504 21.1266C53.504 21.1266 53.504 21.1266 53.504 21.0363C53.7751 20.9459 53.7751 20.8556 53.7751 20.7652C53.8654 20.7652 53.8654 20.7652 53.7751 20.7652L53.8654 20.6749C53.8654 20.6749 53.8654 20.6749 53.8654 20.5845C53.8654 20.5845 53.8654 20.4942 53.9558 20.4942C54.2268 20.4038 54.4075 20.7652 54.4075 20.7652L54.3171 20.8556C54.3171 20.8556 54.3171 20.8556 54.4075 20.8556C54.4075 20.8556 54.4075 20.8556 54.4978 20.8556C54.4978 20.9459 54.4978 21.0363 54.5882 21.0363C54.4978 21.0363 54.5882 21.1266 54.5882 21.1266H54.6785C54.6785 21.1266 54.6785 21.1266 54.5882 21.1266C54.4978 21.1266 54.5882 21.217 54.4978 21.1266C54.5882 21.217 54.5882 21.217 54.5882 21.3073C54.5882 21.3977 54.4978 21.3073 54.4978 21.3977C54.4978 21.488 54.4075 21.5784 54.3171 21.5784C54.2268 21.5784 54.2268 21.6687 54.2268 21.6687C54.1364 21.6687 54.0461 21.7591 54.0461 21.6687C54.0461 21.6687 54.0461 21.6687 54.0461 21.7591C54.0461 21.8494 54.0461 21.9397 53.9558 21.8494C53.9558 21.8494 53.9558 21.8494 53.9558 21.7591V21.8494H53.8654C53.8654 21.759 53.8654 21.7591 53.8654 21.7591V21.8494C53.8654 21.8494 53.8654 21.8494 53.8654 21.7591V21.6687C53.8654 21.6687 53.8654 21.6687 53.8654 21.7591C53.7751 21.7591 53.6847 21.8494 53.6847 21.8494C53.6847 21.8494 53.6847 21.8494 53.5944 21.8494C53.5944 21.8494 53.5944 21.8494 53.5944 21.7591C53.504 21.7591 53.5944 21.6687 53.504 21.7591C53.504 21.7591 53.504 21.7591 53.504 21.6687C53.504 21.6687 53.504 21.7591 53.4137 21.7591C53.4137 21.6687 53.4137 21.7591 53.4137 21.6687C53.4137 21.6687 53.3233 21.6687 53.233 21.6687V21.5784C53.233 21.488 53.1426 21.488 53.0523 21.488V21.3977L52.9619 21.3073C52.9619 21.3073 52.8716 21.217 52.9619 21.217H52.8716C52.8716 21.217 52.8716 21.217 52.8716 21.1266C52.7812 21.0363 52.8716 20.9459 52.7812 20.8556C52.8716 20.8556 52.6909 20.7652 52.8716 20.7652H52.7812C52.7812 20.6749 52.8716 20.5845 52.8716 20.4942C52.9619 20.4038 52.9619 20.3135 53.0523 20.3135C53.0523 20.3135 53.0523 20.3135 53.1426 20.3135C53.1426 20.3135 53.1426 20.3135 53.1426 20.2232C53.233 20.2232 53.233 20.1328 53.3233 20.1328H53.4137C53.4137 20.1328 53.4137 20.1328 53.504 20.1328C53.504 20.1328 53.504 20.1328 53.504 20.2232C53.504 20.2232 53.504 20.2232 53.504 20.3135C53.504 20.3135 53.504 20.3135 53.504 20.4039C53.8654 20.6749 53.8654 20.6749 53.7751 20.7652C53.7751 20.8556 53.7751 20.8556 53.7751 20.7652Z" fill="black"/>
<path d="M60.463 26.1862C60.734 26.3669 61.0954 26.7283 60.6436 26.8186C60.3726 26.909 60.1016 26.7283 60.1016 26.4573C60.1919 26.1862 60.3726 26.0959 60.463 26.1862Z" fill="black"/>
<path d="M60.4631 26.277C60.3727 26.3673 60.3727 26.3673 60.3727 26.3673C60.3727 26.3673 60.3727 26.3673 60.3727 26.4577C60.3727 26.4577 60.3727 26.4577 60.3727 26.548V26.6384V26.7287C60.3727 26.7287 60.3727 26.7287 60.4631 26.7287H60.5534H60.6438C60.7341 26.6384 60.6438 26.6384 60.6438 26.6384H60.5534H60.4631C60.3727 26.6384 60.3727 26.6384 60.3727 26.6384H60.4631C60.4631 26.6384 60.4631 26.6384 60.3727 26.6384C60.2824 26.6384 60.4631 26.6384 60.2824 26.6384C60.3727 26.6384 60.3727 26.6384 60.3727 26.6384C60.2824 26.6384 60.4631 26.6384 60.3727 26.6384C60.3727 26.6384 60.3727 26.6384 60.2824 26.6384C60.2824 26.6384 60.2824 26.6383 60.2824 26.548C60.192 26.548 60.2824 26.548 60.192 26.548L60.2824 26.4577C60.2824 26.4577 60.2824 26.548 60.192 26.548C60.192 26.548 60.192 26.548 60.192 26.4577C60.192 26.4577 60.2824 26.277 60.192 26.3673V26.277C60.192 26.3673 60.192 26.277 60.192 26.3673C60.192 26.3673 60.192 26.3673 60.192 26.277V26.1866C60.5534 26.277 60.5534 26.277 60.4631 26.277C60.5534 26.277 60.4631 26.1866 60.4631 26.277C60.4631 26.3673 60.3727 26.277 60.4631 26.277C60.3727 26.3673 60.3727 26.277 60.4631 26.277C60.3727 26.3673 60.3727 26.3673 60.4631 26.277C60.3727 26.3673 60.3727 26.3673 60.3727 26.3673C60.3727 26.3673 60.2824 26.3673 60.2824 26.4577C60.1017 26.4577 60.192 26.6384 60.192 26.7287C60.2824 26.7287 60.1017 26.819 60.2824 26.819H60.192C60.192 26.9094 60.2824 26.9094 60.192 26.9094C60.192 26.9094 60.192 26.9094 60.2824 26.819C60.2824 26.819 60.2824 26.819 60.2824 26.7287L60.192 26.819V26.7287C60.192 26.7287 60.192 26.7287 60.192 26.6384C60.192 26.6384 60.192 26.6383 60.192 26.548C60.3727 26.3673 60.3727 26.3673 60.4631 26.277C60.3727 26.277 60.3727 26.277 60.4631 26.277C60.4631 26.1866 60.4631 26.1866 60.4631 26.277L60.5534 26.1866C60.5534 26.1866 60.5534 26.1866 60.5534 26.0963C60.5534 26.0963 60.5534 26.0059 60.6438 26.0059C60.9148 25.9156 61.0955 26.277 61.0955 26.277L61.0051 26.3673C61.0051 26.3673 61.0051 26.3673 61.0955 26.3673C61.0955 26.3673 61.0955 26.3673 61.1858 26.3673C61.1858 26.4577 61.1858 26.548 61.2762 26.548C61.1858 26.548 61.2762 26.6384 61.2762 26.6384H61.3665C61.3665 26.6384 61.3665 26.6384 61.2762 26.6384C61.1858 26.6384 61.2762 26.7287 61.1858 26.6384C61.2762 26.7287 61.2762 26.7287 61.2762 26.819C61.2762 26.9094 61.1858 26.819 61.1858 26.9094C61.1858 26.9997 61.0955 27.0901 61.0051 27.0901C60.9148 27.0901 60.9148 27.1804 60.9148 27.1804C60.8245 27.1804 60.7341 27.2708 60.7341 27.1804C60.7341 27.1804 60.7341 27.1804 60.7341 27.2708C60.7341 27.3611 60.7341 27.4515 60.6438 27.3611C60.6438 27.3611 60.6438 27.3611 60.6438 27.2708V27.3611H60.5534C60.5534 27.2708 60.5534 27.2708 60.5534 27.2708V27.3611C60.5534 27.3611 60.5534 27.3611 60.5534 27.2708V27.1804C60.5534 27.1804 60.5534 27.1804 60.5534 27.2708C60.4631 27.2708 60.3727 27.3611 60.3727 27.3611C60.3727 27.3611 60.3727 27.3611 60.2824 27.3611C60.2824 27.3611 60.2824 27.3611 60.2824 27.2708C60.192 27.2708 60.2824 27.1804 60.192 27.2708C60.192 27.2708 60.192 27.2708 60.192 27.1804C60.192 27.1804 60.192 27.2708 60.1017 27.2708C60.1017 27.1804 60.1017 27.2708 60.1017 27.1804C60.1017 27.1804 60.0113 27.1804 59.921 27.1804V27.0901C59.921 26.9997 59.8306 26.9997 59.7403 26.9997V26.9094L59.6499 26.819C59.6499 26.819 59.5596 26.7287 59.6499 26.7287H59.5596H59.4692C59.4692 26.7287 59.4692 26.7287 59.4692 26.6384C59.3789 26.548 59.4693 26.4577 59.3789 26.3673C59.4693 26.3673 59.2886 26.277 59.4692 26.277H59.3789C59.3789 26.1866 59.4692 26.0963 59.4692 26.0059C59.5596 25.9156 59.5596 25.8252 59.6499 25.8252C59.6499 25.8252 59.6499 25.8252 59.7403 25.8252C59.7403 25.8252 59.7403 25.8252 59.7403 25.7349C59.8306 25.7349 59.8306 25.6445 59.921 25.6445H60.0113C60.0113 25.6445 60.0113 25.6445 60.1017 25.6445C60.1017 25.6445 60.1017 25.6445 60.1017 25.7349C60.1017 25.7349 60.1017 25.7349 60.1017 25.8252C60.1017 25.8252 60.1017 25.8252 60.1017 25.9156C60.4631 26.1866 60.4631 26.1866 60.4631 26.277Z" fill="black"/>
<path d="M56.2169 26.1862C56.4879 26.3669 56.8493 26.7283 56.3976 26.8186C56.1265 26.909 55.8555 26.7283 55.8555 26.4573C55.9458 26.1862 56.1265 26.0959 56.2169 26.1862Z" fill="black"/>
<path d="M56.2165 26.277C56.1261 26.3673 56.1261 26.3673 56.1261 26.3673C56.1261 26.3673 56.1261 26.3673 56.1261 26.4577C56.1261 26.4577 56.1261 26.4577 56.1261 26.548V26.6384V26.7287C56.1261 26.7287 56.1261 26.7287 56.2165 26.7287H56.3068H56.3972C56.4875 26.6384 56.3972 26.6384 56.3972 26.6384H56.3068H56.2165C56.1261 26.6384 56.1261 26.6384 56.1261 26.6384H56.2165C56.2165 26.6384 56.2165 26.6384 56.1261 26.6384C56.0358 26.6384 56.2165 26.6384 56.0358 26.6384C56.1261 26.6384 56.1261 26.6384 56.1261 26.6384C56.0358 26.6384 56.2165 26.6384 56.1261 26.6384C56.1261 26.6384 56.1261 26.6384 56.0358 26.6384C56.0358 26.6384 56.0358 26.6383 56.0358 26.548C55.9454 26.548 56.0358 26.548 55.9454 26.548L56.0358 26.4577C56.0358 26.4577 56.0358 26.548 55.9454 26.548C55.9454 26.548 55.9454 26.548 55.9454 26.4577C55.9454 26.4577 56.0358 26.277 55.9454 26.3673V26.277C55.9454 26.3673 55.9454 26.277 55.9454 26.3673C55.9454 26.3673 55.9454 26.3673 55.9454 26.277V26.1866C56.3068 26.277 56.3068 26.277 56.2165 26.277C56.2165 26.1866 56.2165 26.1866 56.2165 26.277C56.1261 26.3673 56.1261 26.3673 56.1261 26.3673C56.1261 26.3673 56.0358 26.3673 56.0358 26.4577C55.8551 26.4577 55.9454 26.6384 55.9454 26.7287C56.0358 26.7287 55.8551 26.819 56.0358 26.819H55.9454C55.9454 26.9094 56.0358 26.9094 55.9454 26.9094C55.9454 26.9094 55.9454 26.9094 56.0358 26.819C56.0358 26.819 56.0358 26.819 56.0358 26.7287L55.9454 26.819V26.7287C55.9454 26.7287 55.9454 26.7287 55.9454 26.6384C55.9454 26.6384 55.9454 26.6383 55.9454 26.548C56.1261 26.3673 56.1261 26.277 56.2165 26.277C56.1261 26.277 56.1261 26.277 56.2165 26.277C56.2165 26.1866 56.2165 26.1866 56.2165 26.277L56.3068 26.1866C56.3068 26.1866 56.3068 26.1866 56.3068 26.0963C56.3068 26.0963 56.3068 26.0059 56.3972 26.0059C56.6682 25.9156 56.8489 26.277 56.8489 26.277L56.7585 26.3673C56.7585 26.3673 56.7586 26.3673 56.8489 26.3673C56.8489 26.3673 56.8489 26.3673 56.9392 26.3673C56.9392 26.4577 56.9392 26.548 57.0296 26.548C56.9392 26.548 57.0296 26.6384 57.0296 26.6384H57.1199C57.1199 26.6384 57.1199 26.6384 57.0296 26.6384C56.9392 26.6384 57.0296 26.7287 56.9392 26.6384C57.0296 26.7287 57.0296 26.7287 57.0296 26.819C57.0296 26.9094 56.9392 26.819 56.9392 26.9094C56.9392 26.9997 56.8489 27.0901 56.7585 27.0901C56.6682 27.0901 56.6682 27.1804 56.6682 27.1804C56.5779 27.1804 56.4875 27.2708 56.4875 27.1804C56.4875 27.1804 56.4875 27.1804 56.4875 27.2708C56.4875 27.3611 56.4875 27.4515 56.3972 27.3611C56.3972 27.3611 56.3972 27.3611 56.3972 27.2708V27.3611H56.3068C56.3068 27.2708 56.3068 27.2708 56.3068 27.2708V27.3611C56.3068 27.3611 56.3068 27.3611 56.3068 27.2708V27.1804C56.3068 27.1804 56.3068 27.1804 56.3068 27.2708C56.2165 27.2708 56.1261 27.3611 56.1261 27.3611C56.1261 27.3611 56.1261 27.3611 56.0358 27.3611C56.0358 27.3611 56.0358 27.3611 56.0358 27.2708C55.9454 27.2708 56.0358 27.1804 55.9454 27.2708C55.9454 27.2708 55.9454 27.2708 55.9454 27.1804C55.9454 27.1804 55.9454 27.2708 55.8551 27.2708C55.8551 27.1804 55.8551 27.2708 55.8551 27.1804C55.8551 27.1804 55.7647 27.1804 55.6744 27.1804V27.0901C55.6744 26.9997 55.584 26.9997 55.4937 26.9997V26.9094L55.4033 26.819C55.4033 26.819 55.313 26.7287 55.4033 26.7287H55.313C55.313 26.7287 55.313 26.7287 55.313 26.6384C55.2227 26.548 55.313 26.4577 55.2227 26.3673C55.313 26.3673 55.1323 26.277 55.313 26.277H55.2227C55.2227 26.1866 55.313 26.0963 55.313 26.0059C55.4034 25.9156 55.4034 25.8252 55.4937 25.8252C55.4937 25.8252 55.4937 25.8252 55.584 25.8252C55.584 25.8252 55.584 25.8252 55.584 25.7349C55.6744 25.7349 55.6744 25.6445 55.7647 25.6445H55.8551C55.8551 25.6445 55.8551 25.6445 55.9454 25.6445C55.9454 25.6445 55.9454 25.6445 55.9454 25.7349C55.9454 25.7349 55.9454 25.7349 55.9454 25.8252C55.9454 25.8252 55.9454 25.8252 55.9454 25.9156C56.2165 26.1866 56.2165 26.1866 56.2165 26.277C56.1261 26.277 56.1261 26.277 56.2165 26.277Z" fill="black"/>
<path d="M45.0954 13.0017V13.0018H45.1049C46.7992 13.0018 48.3399 13.192 49.4289 13.918C49.9244 14.2483 50.359 14.7985 50.5821 15.3992C50.8045 15.9981 50.7812 16.5347 50.5576 16.9323L50.5456 16.9536L50.5347 16.9754C50.3012 17.4424 49.8886 17.7951 49.2658 18.1687C49.032 18.309 48.7955 18.4373 48.5377 18.5771C48.4463 18.6266 48.3523 18.6776 48.2549 18.731C47.8982 18.9266 47.5105 19.1476 47.1437 19.4096L47.1311 19.4186L47.1189 19.4279C46.1043 20.2009 45.3689 21.2751 44.7393 22.1946C44.6838 22.2758 44.629 22.3558 44.575 22.4342C43.8657 23.4638 43.2499 24.2827 42.4166 24.7899L42.404 24.7976L42.3916 24.8057C41.6856 25.2646 40.8123 25.4693 39.7432 25.6002C39.4308 25.6384 39.0862 25.671 38.7252 25.705C37.9467 25.7785 37.0919 25.8592 36.3191 26.0201C33.0565 26.6922 30.3065 28.935 27.9627 30.8465C27.8945 30.9021 27.8266 30.9575 27.7591 31.0125C27.6385 31.1107 27.5184 31.2088 27.3985 31.3067C25.0356 33.2358 22.7768 35.0799 20.094 35.7901C18.7424 36.1478 17.2265 36.1062 15.9159 35.6627C14.6105 35.2211 13.5714 34.4065 13.0343 33.2616C12.0317 31.1065 12.6602 28.835 14.1902 26.6462C15.7177 24.4611 18.0222 22.5563 19.9017 21.3324L19.9018 21.3324L19.9108 21.3264C27.6602 16.1601 35.7777 12.9138 45.0954 13.0017Z" fill="white" stroke="black" stroke-width="2"/>
<path d="M35.2549 28.3555C35.1646 28.3555 35.1646 28.4458 35.0742 28.4458C35.2549 28.4458 35.2549 28.4458 35.2549 28.3555Z" fill="black"/>
<path d="M43.3882 12.7227C43.2979 12.7227 43.2075 12.7226 43.1172 12.813L43.3882 12.7227Z" fill="black"/>
<path d="M35.2549 28.3555C35.1646 28.3555 35.1646 28.4458 35.0742 28.4458C35.2549 28.4458 35.2549 28.4458 35.2549 28.3555Z" fill="black"/>
<path d="M43.3882 12.7227C43.2979 12.7227 43.2075 12.7226 43.1172 12.813L43.3882 12.7227Z" fill="black"/>
<path d="M27.4107 13.5034L27.4107 13.5034L27.4145 13.5022C29.1699 12.968 31.5898 13.3366 33.5709 14.4904C34.6275 15.1253 35.1768 15.7497 35.3378 16.2728C35.4644 16.6841 35.4228 17.2874 34.5475 18.1627L34.5267 18.1835L34.5072 18.2054C33.9206 18.8653 33.0913 19.3296 32.0653 19.8892L32.0357 19.9053L32.0073 19.9234C31.4197 20.2974 30.839 20.6165 30.2176 20.9581C29.7961 21.1897 29.3559 21.4316 28.8821 21.708C27.5925 22.4447 26.4583 23.0196 25.3164 23.0196C24.648 23.0196 24.1823 22.781 23.8322 22.4079C23.459 22.0101 23.1764 21.411 23.0202 20.664C22.7015 19.1402 22.9812 17.3743 23.5534 16.4038C24.4076 15.0096 25.8201 13.9805 27.4107 13.5034Z" fill="#FFF300" stroke="black" stroke-width="2"/>
<path d="M30.7388 22.9336L30.6484 23.0239L30.7388 22.9336Z" fill="black"/>
<path d="M40.4074 62.3176C24.1285 62.3176 10.8719 49.3889 10.3444 33.2383H70.4704C69.9429 49.3889 56.6864 62.3176 40.4074 62.3176Z" fill="#D3233A" stroke="black" stroke-width="2"/>
<mask id="path-28-inside-2_3872_47470" fill="white">
<path d="M48.9874 66.0304H24.5938V59.1641H56.1248V66.0304H44.6507"/>
</mask>
<path d="M48.9874 66.0304H24.5938V59.1641H56.1248V66.0304H44.6507" fill="#486EDE"/>
<path d="M24.5938 66.0304H22.5938V68.0304H24.5938V66.0304ZM24.5938 59.1641V57.1641H22.5938V59.1641H24.5938ZM56.1248 59.1641H58.1248V57.1641H56.1248V59.1641ZM56.1248 66.0304V68.0304H58.1248V66.0304H56.1248ZM48.9874 64.0304H24.5938V68.0304H48.9874V64.0304ZM26.5938 66.0304V59.1641H22.5938V66.0304H26.5938ZM24.5938 61.1641H56.1248V57.1641H24.5938V61.1641ZM54.1248 59.1641V66.0304H58.1248V59.1641H54.1248ZM56.1248 64.0304H44.6507V68.0304H56.1248V64.0304Z" fill="black" mask="url(#path-28-inside-2_3872_47470)"/>
<path d="M24.6857 66.9318C24.1436 67.0222 23.6919 66.6608 23.6016 66.2091V65.938V66.1187C23.6919 66.6608 24.1436 67.0222 24.6857 66.9318C24.6857 67.0222 24.5954 67.0222 24.6857 66.9318Z" fill="black"/>
<path d="M50.251 60.0664C50.1607 60.0664 50.1607 60.0664 50.0703 60.0664C50.251 60.1568 50.251 60.1568 50.251 60.0664Z" fill="black"/>
<path d="M46.4972 44.3463C46.4961 44.3451 46.4946 44.3434 46.4926 44.3412C46.4833 44.3308 46.4644 44.3103 46.4362 44.2825C46.3794 44.2266 46.2873 44.1438 46.1622 44.055C45.9113 43.8769 45.5423 43.6849 45.0616 43.6208L44.2303 43.51L44.1948 42.6763M46.4972 44.3463L44.1949 42.6771L44.1948 42.6763M46.4972 44.3463L46.5154 44.3691L46.5422 44.3977C46.9915 44.877 47.13 45.4787 47.13 46.0063C47.13 46.1244 47.1229 46.2331 47.1122 46.3286L46.9497 46.8487C46.5516 48.1226 45.8961 49.0347 45.3436 49.6268C45.0673 49.9228 44.8186 50.1367 44.6446 50.273C44.5578 50.3411 44.4901 50.3894 44.4477 50.4186C44.4264 50.4332 44.4116 50.4429 44.4038 50.4479L44.3986 50.4513L44.38 50.4626L44.358 50.4776C42.8587 51.5035 41.4504 51.6581 40.5861 51.6581C39.6192 51.6581 38.2283 51.4986 36.8349 50.4922L36.803 50.4692L36.7737 50.4514L36.7689 50.4483C36.7614 50.4434 36.7467 50.4338 36.7258 50.4194C36.6839 50.3905 36.6171 50.3426 36.5315 50.2751C36.36 50.1397 36.1154 49.9273 35.8459 49.6334C35.3073 49.0457 34.6767 48.1409 34.321 46.8762L34.321 46.8762L34.3196 46.8712L34.3195 46.871L34.3181 46.8658C34.316 46.8579 34.3121 46.8427 34.307 46.821C34.2967 46.7775 34.2817 46.7085 34.2666 46.6196C34.236 46.4398 34.2069 46.1894 34.2114 45.9093C34.2205 45.3331 34.3666 44.7521 34.7882 44.3305L34.8274 44.2914L34.8557 44.256C34.8568 44.2548 34.8583 44.2531 34.8602 44.2509C34.8695 44.2405 34.8884 44.22 34.9166 44.1922C34.9735 44.1363 35.0655 44.0534 35.1906 43.9646C35.4415 43.7866 35.8106 43.5946 36.2912 43.5305L37.1048 43.422L37.1568 42.6068C37.1568 42.6068 37.1568 42.6068 37.1568 42.6068L37.1585 42.5883C37.1604 42.5688 37.1639 42.5357 37.17 42.4909C37.1822 42.4009 37.2041 42.2656 37.2422 42.1004C37.3193 41.766 37.4571 41.3317 37.6965 40.9073C38.1484 40.1057 38.9708 39.2963 40.666 39.293C42.4174 39.3327 43.2431 40.1697 43.6841 40.9753C43.9183 41.4031 44.0487 41.8381 44.1195 42.1721C44.1545 42.3371 44.1738 42.472 44.1841 42.5615C44.1892 42.6062 44.1921 42.639 44.1936 42.6582L44.1948 42.6762L44.1948 42.6763M46.4972 44.3463L44.1948 42.6763" fill="white" stroke="black" stroke-width="2"/>
</svg>
