<?xml version="1.0" encoding="utf-8"?>
<!-- Generator: Adobe Illustrator 25.1.0, SVG Export Plug-In . SVG Version: 6.00 Build 0)  -->
<svg version="1.1" id="Layer_1" xmlns="http://www.w3.org/2000/svg" xmlns:xlink="http://www.w3.org/1999/xlink" x="0px" y="0px"
	 viewBox="0 0 38 38" style="enable-background:new 0 0 38 38;" xml:space="preserve">
<style type="text/css">
	.st0{fill:#FFFFFF;}
	.st1{fill:#DC2F34;}
</style>
<g>
	<path class="st0" d="M19,36.3c-2.5,0-6.4-0.5-10.4-3.2C8.4,33,3.5,30,1.4,23.1c-0.1-0.2-1.6-5.4,1.7-8.8C3.3,14,5,12.1,7.9,11.6
		C8.1,9,10.5,1.7,19,1.7h0c8.5,0,10.9,7.3,11.1,9.8c2.8,0.6,4.5,2.5,4.7,2.7c3.3,3.5,1.8,8.6,1.7,8.8c-2.1,6.9-6.9,9.9-7.2,10.1
		C25.4,35.8,21.5,36.3,19,36.3z"/>
	<path class="st0" d="M19,36.6c-2.6,0-6.6-0.6-10.6-3.2c-1.3-0.8-5.4-4-7.3-10.2c-0.4-1.3-1.3-5.9,1.8-9.1c0.3-0.3,2-2.1,4.7-2.7
		C8,8.4,10.5,1.5,19,1.5c8.4,0,11,7,11.4,9.9c2.6,0.6,4.2,2.2,4.7,2.7c3.1,3.2,2.2,7.7,1.8,9c-2,6.8-6.7,9.9-7.3,10.2
		C25.6,36,21.6,36.6,19,36.6z M19,2C10.7,2,8.3,8.9,8.1,11.6l0,0.2l-0.2,0c-2.6,0.5-4.3,2.3-4.6,2.6c-2.9,3-2,7.3-1.7,8.5
		c1.8,6.1,5.8,9.1,7,9.9l0.1,0c3.9,2.6,7.7,3.2,10.3,3.2c2.5,0,6.4-0.5,10.3-3.2c0.5-0.3,5.1-3.3,7.1-9.9c0.3-1.3,1.2-5.6-1.7-8.6
		c-0.4-0.5-2-2.1-4.6-2.6l-0.2,0l0-0.2C29.6,8.9,27.2,2,19,2z"/>
</g>
<path class="st0" d="M33,33c-0.8,0-1.4,0.6-1.4,1.4s0.6,1.4,1.4,1.4c0.8,0,1.4-0.6,1.4-1.4C34.4,33.7,33.7,33,33,33z M33,35.7
	c-0.7,0-1.2-0.5-1.2-1.2c0-0.6,0.5-1.2,1.2-1.2c0.6,0,1.2,0.5,1.2,1.2C34.1,35.2,33.6,35.7,33,35.7z"/>
<path class="st0" d="M33.6,35.2v-0.3c0-0.3-0.1-0.3-0.2-0.3c0.1-0.1,0.2-0.2,0.2-0.4c0-0.4-0.3-0.5-0.5-0.5h-0.8v1.8h0.2v-0.8h0.5
	c0.3,0,0.3,0.2,0.3,0.3c0,0.1,0,0.3,0,0.4h0.3v0C33.6,35.3,33.6,35.3,33.6,35.2z M33.1,34.4h-0.5v-0.6h0.6c0.1,0,0.3,0,0.3,0.3
	C33.4,34.4,33.2,34.4,33.1,34.4z"/>
<path class="st0" d="M32.9,33c-0.8,0-1.4,0.6-1.4,1.4c0,0.8,0.6,1.4,1.4,1.4c0.8,0,1.4-0.6,1.4-1.4C34.4,33.7,33.7,33,32.9,33z
	 M32.9,35.7c-0.7,0-1.2-0.5-1.2-1.2c0-0.7,0.5-1.2,1.2-1.2c0.7,0,1.2,0.5,1.2,1.2C34.1,35.2,33.6,35.7,32.9,35.7z"/>
<path class="st0" d="M33.6,35.2v-0.3c0-0.3-0.1-0.3-0.2-0.3c0.1-0.1,0.2-0.2,0.2-0.4c0-0.4-0.3-0.5-0.5-0.5h-0.8v1.8h0.2v-0.8h0.5
	c0.3,0,0.3,0.2,0.3,0.3c0,0.1,0,0.3,0,0.4h0.3v0C33.6,35.3,33.6,35.3,33.6,35.2z M33.1,34.4h-0.5v-0.6h0.6c0.1,0,0.3,0,0.3,0.3
	C33.4,34.4,33.2,34.4,33.1,34.4z"/>
<path class="st1" d="M34.3,14.8c0,0-1.8-2.1-4.8-2.5c0,0-0.6-9.9-10.5-9.9h0c-9.9,0-10.5,9.9-10.5,9.9c-3,0.4-4.8,2.5-4.8,2.5
	c-3.1,3.2-1.6,8.1-1.6,8.1c2,6.7,6.8,9.6,6.8,9.6c3.9,2.6,7.7,3.1,10.1,3.1c2.4,0,6.2-0.6,10.1-3.1c0,0,4.8-3,6.8-9.6
	C35.9,22.9,37.5,18.1,34.3,14.8z"/>
<path class="st0" d="M33.1,15.6c0,0-1.5-1.7-4.9-2.1c0,0-0.2-9.8-9.1-9.8c-8.9,0-9.1,9.8-9.1,9.8C6.5,13.8,5,15.6,5,15.6
	c-2.9,3-1.4,7.1-1.4,7.1c1.9,6.2,6.3,8.8,6.3,8.8c3.6,2.4,7,2.9,9.1,2.9c2.1,0,5.5-0.5,9.1-2.9c0,0,4.4-2.6,6.3-8.8
	C34.4,22.7,36,18.5,33.1,15.6z"/>
<path class="st1" d="M33.1,19.3c0,0-0.7-3.7-4.3-3.8h-3.1c0.4-0.9,0.5-1.6,0.5-3c0-3.9-3.2-7-7.2-7H19c-4,0-7.2,3-7.2,7
	c0,1.3,0.2,2.2,0.6,3H9.1c-3.7,0.3-4.2,3.8-4.2,3.8c-0.3,2.6,0.6,4.3,0.6,4.3S7.8,30,15.2,32c0,0,1.6,0.5,3.9,0.5
	c2.3,0,3.9-0.5,3.9-0.5c7.3-2,9.6-8.4,9.6-8.4S33.4,21.9,33.1,19.3z M32.3,23.5c0,0-2.3,6.3-9.4,8.3c0,0-1.6,0.5-3.8,0.5
	c-2.2,0-3.8-0.5-3.8-0.5c-7.2-2-9.4-8.3-9.4-8.3s-0.9-1.6-0.6-4.2c0,0,0.6-3.4,4.2-3.5h3.3c-0.5-1-0.7-1.8-0.7-3
	c0-3.8,3-6.9,6.9-6.9h0.1c4,0,6.9,3.1,6.9,6.9c0,1.3-0.2,2-0.7,3h3.3c3.6,0.1,4.2,3.5,4.2,3.5C33.2,21.9,32.3,23.5,32.3,23.5z"/>
<path class="st1" d="M11.9,19.8c-0.8,0-1.5,0.9-1.5,2c0,1.1,0.7,2,1.5,2s1.5-0.9,1.5-2C13.5,20.6,12.8,19.8,11.9,19.8z"/>
<path class="st1" d="M31.6,17.8c-1.2-1.6-3.2-1.6-3.2-1.6h-4.8l-0.1,0.1c-0.9,1.4-2.4,2.4-4.5,2.4c-1.5,0-3.5-1-4.5-2.4l0-0.1H9.6
	c0,0-2,0-3.2,1.6c0,0-1.6,1.6-0.2,5.4c0,0,2.1,6,9.1,7.9c0,0,1.5,0.5,3.7,0.5h0h0c2.1,0,3.7-0.5,3.7-0.5c7-2,9.1-7.9,9.1-7.9
	C33.2,19.5,31.6,17.8,31.6,17.8z M19.4,19.2h3.1V20h-1.2v2.2h1.2v0.8h-2.5c-0.3,0-0.6-0.3-0.6-0.6V19.2z M18.8,19.2v0.9h-1v2.2h1
	v0.9h-2.3c-0.3,0-0.6-0.3-0.6-0.6v-3.3L18.8,19.2L18.8,19.2z M13,24.4V26h2.3v0.9H8.7V26h2.2v-1.6C9.6,24,8.5,23,8.5,21.8
	c0-1.5,1.5-2.7,3.4-2.7c1.9,0,3.4,1.2,3.4,2.7C15.4,23,14.4,24,13,24.4z M22.5,24.6h-2.4v1.9c0,0.4-0.4,0.8-1,0.8
	c-0.6,0-1-0.4-1-0.8c0,0,0-0.1,0-0.1v-1.8h-2.2v-0.9h6.7L22.5,24.6L22.5,24.6z M26.8,24.9c0,2.1-3.2,2-3.2,2c-0.3,0-0.4-0.2-0.4-0.5
	s0.2-0.5,0.5-0.5c1.3-0.3,1.3-1.1,1.3-1.1v-4.6h-1.8v-0.9h3.7V24.9z M29.5,26.3c0,0.4-0.4,0.8-0.9,0.8c-0.6,0-1-0.4-1-0.8v-7.3h1.9
	L29.5,26.3L29.5,26.3z"/>
<path class="st1" d="M15.9,10.8c0,0,0.9-0.5,1.3-0.1c0,0,0.3,0.2,0.2-0.3c0,0-0.5-1-1.6,0.1C15.8,10.6,15.2,11.2,15.9,10.8z"/>
<path class="st1" d="M21,9.6L20.2,10c-0.5,0.3-0.2,0.6-0.2,0.6c0.4,0.4,0.7,0.1,0.7,0.1c0.5-0.6,1.1-0.3,1.1-0.3
	C21.7,9.2,21,9.6,21,9.6z"/>
<path class="st1" d="M19.7,13c0.4,0,0.8-0.3,0.7-0.8c0-0.4-0.3-0.8-0.8-0.7c-0.4,0-0.8,0.3-0.8,0.8C18.9,12.7,19.3,13.1,19.7,13z"/>
<path class="st1" d="M17.5,12.1c0,0-0.6,0.1,0.1,0.6c0,0,0.7,0.4,0.7,0c0,0-0.5,0.1-0.1-0.5c0,0,0-0.7-0.5-0.8
	C17.7,11.3,18.1,12.1,17.5,12.1z"/>
<path class="st1" d="M16.9,12c0,0,0.6-0.2-0.1-0.2c0,0-0.7,0.1-0.9-0.4c0,0-0.6-0.5-0.2,0.1C15.6,11.5,15.9,12.3,16.9,12z"/>
<path class="st1" d="M21.1,14.2l-0.5,0.3c0,0-0.4,0.2-0.3-0.3c0,0-0.1-1.2-0.7-0.7c0,0-0.5,0.6-0.9,0.7c0,0-0.7,0.4-1.4-0.1
	c0,0-0.9-0.8-1.3-0.8c0,0-0.5,0,0,0.2c0,0,0.3,0.1,0.7,0.3c0,0,0.6,0.7,0.9,0.9c0,0,0.5,0.3,1.4,0.4c0,0,1.3,0.2,2.2-0.7
	C21.3,14.3,21.5,14,21.1,14.2z M19.4,14.5l-0.4-0.1c0,0,0.5-0.2,0.7-0.4C19.8,14.1,19.7,14.5,19.4,14.5z"/>
<path class="st1" d="M24.5,12.9c0-0.1,0-0.1,0-0.2c0-0.1,0-0.1,0-0.2c0.1-0.7,0-2.3-1.6-4.2c0,0-1.9-2.6-5.1-1.1
	c0,0-1.3-0.9-2.3,0.1c0,0-0.9,0.7-0.4,2c0,0-0.2,0.3-0.5,0.7c-0.6,0.9-0.9,1.9-0.9,2.8c0,2.3,1.4,4.2,3.4,5.1
	c0.3,0.1,0.6,0.3,0.9,0.4c0,0,2.6,0.9,4.9-1.4c0.4-0.4,0.7-0.8,1-1.3C24.1,15.2,25.5,14,24.5,12.9z M23.1,14.4
	c-0.3,1.2-1.2,1.9-1.6,2.2h0c-0.1,0.1-0.2,0.1-0.2,0.1c-0.7,0.4-1.4,0.6-2.2,0.6c-2.4,0-4.4-1.9-4.5-4.3c-0.1-1.7,1.3-3.1,1.3-3.1
	c1.3,0.2,2-0.3,2-0.3c1.9,1.1,2.1-0.2,2.1-0.2c-0.9,0.1-0.5-0.4-0.5-0.4c0.2-0.3,0.8-0.2,0.8-0.2c2.9,0.5,2,2.4,2,2.4
	c0.9,0.5,0.5,0.9,0.5,0.9c-0.6-0.2-0.7,0.1-0.6,0.3s0.3,0.4,0.5,0.6c0.1,0.1,0.3,0.3,0.3,0.5c0,0.1,0.1,0.1,0.1,0.2c0,0,0,0.1,0,0.1
	c0,0.1,0,0.2,0,0.3c0,0,0.1,0,0.1-0.1c0.2-0.4,0.8-0.8,0.8-0.2C23.8,14.6,23.1,14.4,23.1,14.4z"/>
<path class="st0" d="M22.8,13.5c0,0.1,0.1,0.1,0.1,0.2C22.9,13.6,22.9,13.6,22.8,13.5z"/>
</svg>
