<svg width="36" height="36" viewBox="0 0 36 36" fill="none" xmlns="http://www.w3.org/2000/svg">
<path d="M31.9138 32.1348C31.1166 32.1348 30.47 32.7814 30.47 33.5786C30.47 34.3758 31.1166 35.0225 31.9138 35.0225C32.711 35.0225 33.3577 34.3758 33.3577 33.5786C33.3577 32.7814 32.711 32.1348 31.9138 32.1348ZM31.9138 34.766C31.2588 34.766 30.7264 34.2337 30.7264 33.5786C30.7264 32.9236 31.2588 32.3912 31.9138 32.3912C32.5689 32.3912 33.1012 32.9236 33.1012 33.5786C33.1012 34.2337 32.5689 34.766 31.9138 34.766Z" fill="#DF3232"/>
<path d="M32.5828 34.2388L32.5689 33.9211C32.5605 33.6786 32.4658 33.634 32.371 33.5922C32.4769 33.5253 32.5996 33.4305 32.5996 33.1713C32.5996 32.8005 32.3292 32.7002 32.0588 32.7002H31.2979V34.4534H31.5208V33.7009H32.0588C32.3236 33.7009 32.3515 33.8681 32.3515 34.013C32.3515 34.0799 32.3571 34.3447 32.3905 34.4534H32.6637V34.4144C32.594 34.3726 32.5828 34.3364 32.58 34.2388H32.5828ZM32.0365 33.5002H31.5208V32.9037H32.0755C32.1842 32.9037 32.371 32.926 32.371 33.1963C32.371 33.4667 32.1982 33.5002 32.0365 33.5002Z" fill="#DF3232"/>
<path d="M33.3019 13.8832C33.3019 13.8832 31.5375 11.723 28.4909 11.3384C28.4909 11.3356 27.925 1.44879 18.0187 1.44043H18.0104H17.9853C8.08176 1.446 7.51592 11.3356 7.51592 11.3356C4.46654 11.7202 2.70493 13.8805 2.70493 13.8805C-0.469887 17.125 1.11613 21.9945 1.11613 21.9945C3.11467 28.6786 7.95075 31.6388 7.95075 31.6388C11.8363 34.2366 15.6104 34.7523 17.9992 34.7885H18.0076C20.3964 34.7523 24.1732 34.2366 28.0588 31.6388C28.0588 31.6388 32.8893 28.6786 34.8907 21.9945C34.8907 21.9945 36.4767 17.1277 33.3047 13.8805L33.3019 13.8832Z" fill="#DF3232"/>
<path d="M32.0477 14.6328C32.0477 14.6328 30.5202 12.9186 27.1224 12.573C27.1224 12.573 26.9384 2.75865 18.0049 2.75586C18.0049 2.75586 18.0049 2.75586 18.0021 2.75586H17.9993C9.06581 2.76143 8.88463 12.573 8.88463 12.573C5.48683 12.9214 3.95935 14.6328 3.95935 14.6328C1.07442 17.5874 2.59354 21.7936 2.59354 21.7936C4.43878 27.9732 8.87906 30.5961 8.87906 30.5961C12.4608 32.9904 15.8558 33.4727 17.9993 33.4754H18.0049C20.1484 33.4727 23.5434 32.9904 27.1252 30.5961C27.1252 30.5961 31.5682 27.9732 33.4163 21.7936C33.4163 21.7936 34.9354 17.5874 32.0477 14.6328Z" fill="white"/>
<path d="M32.1117 18.4017C32.1117 18.4017 31.4539 14.7558 27.7969 14.5997H24.7336C25.1294 13.6966 25.266 12.9552 25.2548 11.6256C25.2269 7.68984 22.0661 4.61816 18.0383 4.61816H17.9686C13.9409 4.61816 10.7577 7.65361 10.727 11.5866C10.7187 12.9162 10.8971 13.7524 11.318 14.5969H8.07069C4.41366 14.8367 3.89521 18.3989 3.89521 18.3989C3.58302 20.994 4.49449 22.6803 4.49449 22.6803C4.49449 22.6803 6.79686 29.0913 14.1276 31.087C14.1276 31.087 15.7137 31.5887 17.9993 31.611C20.2849 31.5887 21.8765 31.087 21.8765 31.087C29.2017 29.0913 31.5069 22.6803 31.5069 22.6803C31.5069 22.6803 32.4183 20.9912 32.1089 18.3989L32.1117 18.4017ZM31.2449 22.5939C31.2449 22.5939 28.9843 28.8794 21.804 30.8361C21.804 30.8361 20.2431 31.3295 18.0021 31.349C15.761 31.3267 14.2057 30.8361 14.2057 30.8361C7.01985 28.8794 4.75929 22.5939 4.75929 22.5939C4.75929 22.5939 3.86734 20.9382 4.17395 18.3961C4.17395 18.3961 4.82062 14.9593 8.40238 14.8617H11.7221C11.2288 13.8555 11.0114 13.1196 11.0225 11.8151C11.0532 7.95743 14.0217 4.88296 17.9686 4.88296H18.0383C21.9852 4.88296 24.9566 7.95743 24.9844 11.8151C24.9956 13.1196 24.7782 13.8555 24.2876 14.8617H27.6046C31.1891 14.9593 31.8358 18.3961 31.8358 18.3961C32.1396 20.9382 31.2477 22.5939 31.2477 22.5939H31.2449Z" fill="#DF3232"/>
<path d="M10.9138 18.8115C10.0776 18.8115 9.39746 19.6895 9.39746 20.771C9.39746 21.8525 10.0776 22.7278 10.9138 22.7278C11.75 22.7278 12.4273 21.8498 12.4273 20.771C12.4273 19.6923 11.75 18.8115 10.9138 18.8115Z" fill="#DF3232"/>
<path d="M30.6066 16.9023C29.4219 15.2717 27.4234 15.294 27.4234 15.294H22.5817L22.5093 15.3943C21.5504 16.8159 20.0926 17.7998 18.0021 17.7998C16.4802 17.7998 14.4733 16.8187 13.5088 15.3943L13.4419 15.294H8.58077C8.58077 15.294 6.58223 15.2717 5.40596 16.9023C5.40596 16.9023 3.8088 18.558 5.21363 22.3293C5.21363 22.3293 7.29022 28.2803 14.3116 30.2789C14.3116 30.2789 15.8056 30.7499 17.9631 30.7778C17.9631 30.7778 17.9909 30.7778 18.0021 30.7778C18.0132 30.7778 18.03 30.7778 18.0439 30.7778C20.2013 30.7499 21.6981 30.2761 21.6981 30.2761C28.7195 28.2775 30.7933 22.3265 30.7933 22.3265C32.1981 18.5552 30.6066 16.8995 30.6066 16.8995V16.9023ZM18.3198 18.2737H21.4166V19.1238H20.2069V21.3649H21.4166V22.2066H18.8912C18.5846 22.2011 18.3393 21.9558 18.331 21.6519L18.3198 21.6436V18.2737ZM17.8014 18.2737V19.1266H16.7924V21.3565H17.8014V22.2066H15.4711C15.4711 22.2066 15.4656 22.2038 15.4628 22.2038C15.1534 22.2038 14.8997 21.953 14.8969 21.6436V21.638C14.8969 21.638 14.8942 21.6296 14.8942 21.6269V18.2737H17.8014ZM11.9423 23.4247V25.0442H14.1973V25.9083H7.68045V25.0442H9.91035V23.4219C8.52781 23.0791 7.52157 22.0505 7.52157 20.8436C7.52157 19.3496 9.04626 18.1371 10.9305 18.1371C12.8148 18.1371 14.3395 19.3496 14.3395 20.8436C14.3395 22.0561 13.3304 23.0847 11.9423 23.4247ZM21.4974 23.7035H19.0724V25.5626C19.0724 25.9947 18.6153 26.3459 18.0578 26.3459C17.5004 26.3459 17.046 25.9919 17.046 25.5571C17.046 25.532 17.046 25.5013 17.0516 25.4734V23.709H14.8189V22.8226H21.503V23.7062L21.4974 23.7035ZM25.7621 23.9627C25.7621 26.0588 22.565 25.9278 22.565 25.9278V25.9222C22.2751 25.9222 22.1023 25.702 22.1023 25.4177C22.1023 25.1334 22.2807 24.955 22.6152 24.9048H22.6096C23.9559 24.6484 23.9559 23.7648 23.9559 23.7648V19.1461H22.1134V18.2597H25.7621V23.9599V23.9627ZM28.4826 25.4093C28.4826 25.8414 28.1035 26.1898 27.5488 26.1898C26.9941 26.1898 26.5732 25.8414 26.5732 25.4093V18.1343H28.4826V25.4093Z" fill="#DF3232"/>
<path d="M14.8524 9.88675C14.8524 9.88675 15.7611 9.35157 16.1179 9.81985C16.1179 9.81985 16.3827 9.99267 16.3186 9.55227C16.3186 9.55227 15.8447 8.58226 14.7604 9.65261C14.7604 9.65261 14.2057 10.2435 14.8496 9.88675H14.8524Z" fill="#DF3232"/>
<path d="M19.9086 8.71826L19.1895 9.03324C18.71 9.27295 18.9915 9.60186 18.9915 9.60186C19.3929 10.0032 19.7218 9.67712 19.7218 9.67712C20.2542 9.07783 20.8368 9.36215 20.8368 9.36215C20.6668 8.23605 19.9058 8.72105 19.9058 8.72105L19.9086 8.71826Z" fill="#DF3232"/>
<path d="M18.6516 12.1193C19.0641 12.1138 19.3958 11.7821 19.3902 11.3695C19.3902 10.9598 19.053 10.6281 18.6432 10.6309C18.2307 10.6309 17.9018 10.9681 17.9046 11.3779C17.9046 11.7932 18.2446 12.1221 18.6544 12.1193H18.6516Z" fill="#DF3232"/>
<path d="M16.4495 11.1718C16.4495 11.1718 15.8028 11.3251 16.5415 11.7599C16.5415 11.7599 17.2244 12.1362 17.2188 11.7265C17.2188 11.7265 16.7505 11.7878 17.1268 11.1969C17.1268 11.1969 17.1519 10.461 16.6223 10.4053C16.6223 10.4053 17.0683 11.169 16.4495 11.1718Z" fill="#DF3232"/>
<path d="M15.8335 11.0567C15.8335 11.0567 16.4802 10.9034 15.7722 10.8783C15.7722 10.8783 15.0948 10.9731 14.8273 10.4435C14.8273 10.4435 14.2642 9.91669 14.5931 10.5634C14.5931 10.5634 14.8356 11.3856 15.8335 11.0567Z" fill="#DF3232"/>
<path d="M20.0871 13.2926L19.6189 13.5908C19.6189 13.5908 19.2063 13.772 19.3513 13.3009C19.3513 13.3009 19.2899 12.0633 18.6684 12.5985C18.6684 12.5985 18.1415 13.1616 17.7597 13.2814C17.7597 13.2814 17.0573 13.6716 16.3186 13.1448C16.3186 13.1448 15.4601 12.3003 15.0169 12.3616C15.0169 12.3616 14.4817 12.3393 15.0169 12.5344C15.0169 12.5344 15.3598 12.618 15.697 12.8549C15.697 12.8549 16.2963 13.5629 16.6196 13.7079C16.6196 13.7079 17.1046 14.0507 18.0524 14.0702C18.0524 14.0702 19.3568 14.2403 20.2655 13.4068C20.2655 13.4068 20.5108 13.064 20.0871 13.2898V13.2926ZM18.3924 13.6243L18.0384 13.5657C18.0384 13.5657 18.5652 13.3901 18.7436 13.1532C18.7436 13.1532 18.6293 13.5657 18.3896 13.6243H18.3924Z" fill="#DF3232"/>
<path d="M23.4291 11.9935C23.4291 11.9238 23.4402 11.8541 23.4402 11.7817C23.4402 11.7092 23.4346 11.6451 23.4319 11.5782C23.4848 10.8841 23.3956 9.27583 21.8403 7.43617C21.8403 7.43617 19.9058 4.79374 16.7394 6.27941C16.7394 6.27941 15.446 5.38745 14.3868 6.35467C14.3868 6.35467 13.4642 7.07381 13.9882 8.30025C13.9882 8.30025 13.768 8.55669 13.5005 8.98315C12.89 9.86118 12.5388 10.8535 12.5388 11.8068C12.5388 14.0952 13.9492 16.0575 15.9422 16.877C16.2042 17.0052 16.4941 17.1278 16.8202 17.2338C16.8202 17.2338 19.4654 18.1675 21.687 15.8234C22.0744 15.461 22.4061 15.0429 22.6765 14.583C23.0751 14.2764 24.4548 13.0889 23.4263 11.9963L23.4291 11.9935ZM22.0493 13.4485C21.7399 14.6136 20.8619 15.3411 20.4633 15.6255C20.4633 15.6255 20.4438 15.6366 20.4438 15.6394C20.4354 15.645 20.4382 15.6422 20.4299 15.6505C20.3267 15.723 20.2626 15.7592 20.2626 15.7592C19.602 16.1467 18.8411 16.3725 18.0244 16.3725C15.6021 16.3725 13.6203 14.4771 13.4698 12.0939C13.4085 10.4019 14.7297 8.99988 14.7297 8.99988C16.0565 9.16712 16.731 8.66261 16.731 8.66261C18.6543 9.79428 18.8801 8.43962 18.8801 8.43962C17.938 8.53718 18.3477 8.002 18.3477 8.002C18.579 7.67867 19.1421 7.79016 19.1421 7.79016C22.0577 8.26959 21.1295 10.218 21.1295 10.218C22.0187 10.7113 21.6089 11.1294 21.6089 11.1294C21.018 10.9678 20.9455 11.1908 21.0208 11.4528C21.0988 11.7204 21.3107 11.9099 21.5141 12.0966C21.6591 12.2304 21.7539 12.4172 21.8124 12.5649C21.8403 12.6207 21.8598 12.6848 21.8737 12.7489C21.8821 12.7796 21.8877 12.8018 21.8877 12.8018C21.8877 12.8074 21.8877 12.8102 21.8877 12.813C21.9072 12.9217 21.9155 13.0248 21.9267 13.0945C21.9573 13.1252 21.9991 13.0945 22.0354 13.0499C22.197 12.6681 22.8354 12.2332 22.8354 12.8799C22.8354 13.6548 22.0521 13.4402 22.0521 13.4402L22.0493 13.4485Z" fill="#DF3232"/>
<path d="M21.8096 12.5703C21.8402 12.6484 21.8597 12.7125 21.8709 12.7543C21.857 12.6902 21.8374 12.6261 21.8096 12.5703Z" fill="white"/>
</svg>
